<?xml version="1.0" standalone="no"?>
<!DOCTYPE svg PUBLIC "-//W3C//DTD SVG 1.0//EN" "http://www.w3.org/TR/2001/REC-SVG-20010904/DTD/svg10.dtd">
<svg xmlns="http://www.w3.org/2000/svg" xmlns:xlink="http://www.w3.org/1999/xlink" id="body_1" width="63" height="42">

<g transform="matrix(0.020998007 0 0 0.020998007 0.0005767275 -0)">
	<g>
        <path d="M0.113281 2000.0703L3000.1094 2000.0703L3000.1094 0.109375L0.113281 0.109375L0.113281 2000.0703" stroke="none" fill="#FFFFFF" fill-rule="nonzero" />
        <path transform="matrix(0.1 0 -0 -0.1 0 2000.19)"  d="M1.132813 1.196875L30001.094 1.196875L30001.094 20000.807L1.132813 20000.807L1.132813 1.196875z" stroke="#020202" stroke-width="2.26772" fill="none" />
        <path d="M2818.5781 754.0117L2771.8008 695.5508C 2771.8008 879.08984 2771.8008 1062.6289 2771.8008 1246.1719L2771.8008 1246.1719L2818.5781 1304.6406C 2818.5781 1121.1016 2818.5781 937.5508 2818.5781 754.0117" stroke="none" fill="#ED1F24" fill-rule="nonzero" />
        <path d="M2929.129 717.39844L2882.3594 658.9297C 2882.3594 866.9219 2882.3594 1074.8008 2882.3594 1282.7891L2882.3594 1282.7891L2929.129 1341.1406C 2929.129 1133.2617 2929.129 925.26953 2929.129 717.39844" stroke="none" fill="#ED1F24" fill-rule="nonzero" />
        <path d="M181.76562 754.0117L228.53906 695.5508C 228.53906 879.08984 228.53906 1062.6289 228.53906 1246.1719L228.53906 1246.1719L181.76562 1304.6406C 181.76562 1121.1016 181.76562 937.5508 181.76562 754.0117" stroke="none" fill="#ED1F24" fill-rule="nonzero" />
        <path d="M71.21484 717.39844L117.98828 658.9297C 117.98828 866.9219 117.98828 1074.8008 117.98828 1282.7891L117.98828 1282.7891L71.21484 1341.1406C 71.21484 1133.2617 71.21484 925.26953 71.21484 717.39844" stroke="none" fill="#ED1F24" fill-rule="nonzero" />
        <path d="M1724.6406 1164.6797C 1724.6406 1147.9102 1729.3711 1133.7383 1739.0508 1122.0391C 1748.6211 1110.2305 1760.1914 1104.3281 1773.7695 1104.3281C 1778.5 1104.3281 1782.8711 1106.2109 1786.5312 1109.8711C 1790.3086 1113.5391 1792.9102 1118.3789 1794.4492 1124.5195C 1793.1484 1122.8711 1791.6094 1121.6914 1789.8398 1120.8594C 1787.9492 1119.9219 1785.9414 1119.5586 1783.6914 1119.5586C 1777.3203 1119.5586 1771.8906 1123.1016 1767.3984 1130.4297C 1763.0312 1137.75 1760.7812 1146.6094 1760.7812 1157.1211C 1760.7812 1161.25 1761.8398 1164.8008 1764.0898 1167.75C 1766.3281 1170.6992 1769.0508 1172.2383 1772.2383 1172.2383C 1778.7305 1172.2383 1784.7617 1165.3906 1790.1914 1151.6914C 1795.7383 1138.1094 1798.4609 1123.1016 1798.4609 1107.0391C 1801.7695 1104.0898 1806.0195 1101.8398 1810.9805 1100.3086C 1815.9414 1098.8906 1821.7305 1098.1797 1828.1016 1098.1797C 1826.9219 1117.9102 1826.3281 1152.6289 1826.3281 1202.2383C 1817.2383 1207.1992 1808.5 1209.8008 1800 1209.8008C 1799.1719 1209.8008 1798.3398 1208.9688 1797.75 1207.5586C 1797.1602 1206.0195 1796.8008 1204.25 1796.8008 1202.2383L1796.8008 1202.2383L1797.6289 1157.1211C 1792.4297 1170.9414 1785.5898 1181.9219 1777.3203 1190.0781C 1768.9297 1198.1016 1760.0703 1202.2383 1750.8594 1202.2383C 1743.6602 1202.2383 1737.3984 1198.5781 1732.3203 1191.25C 1727.1211 1183.9297 1724.6406 1175.0703 1724.6406 1164.6797zM1798.4609 1059.3281C 1798.4609 1050.1094 1802.2383 1041.4883 1809.5586 1033.5781C 1817 1025.6602 1825.0391 1021.7617 1833.8906 1021.7617C 1838.5 1021.7617 1842.6289 1022.2383 1846.3008 1023.3008C 1849.9492 1024.3594 1852.9102 1025.8984 1855.1484 1028.0312C 1855.1484 1030.2695 1853.8516 1033.4609 1851.2617 1037.7109C 1848.6602 1041.9609 1846.6484 1044.0898 1845.2305 1044.0898C 1842.75 1041.0195 1840.5117 1038.5391 1838.6211 1036.8789C 1836.7305 1035.1094 1835.0703 1034.2812 1833.8906 1034.2812C 1830.6992 1034.2812 1827.9883 1035.5781 1825.7383 1038.3008C 1823.5 1041.0195 1822.4414 1044.2109 1822.4414 1048.1094C 1822.4414 1051.5312 1823.2617 1055.0703 1825.0391 1058.7383C 1826.8086 1062.3984 1829.1719 1065.5898 1832.1211 1068.1797L1832.1211 1068.1797L1813.3398 1079.4102L1806.7305 1079.4102C 1804.25 1077.0391 1802.2383 1074.2109 1800.6992 1070.6719C 1799.2891 1067 1798.4609 1063.2188 1798.4609 1059.3281zM1842.8711 1163.3789C 1842.8711 1147.9102 1847.2383 1134.5586 1855.8594 1123.5781C 1864.4805 1112.4688 1875 1107.0391 1887.2812 1107.0391C 1892 1107.0391 1896.6094 1108.9297 1901.1016 1112.8281C 1905.4688 1116.7305 1908.0586 1121.1016 1908.5391 1125.8203C 1907.3594 1124.1719 1905.8203 1122.9883 1904.1719 1122.1602C 1902.3984 1121.2109 1900.6289 1120.8594 1898.7305 1120.8594C 1892.3594 1120.8594 1886.9297 1125 1882.4414 1133.1484C 1877.9492 1141.4102 1875.6992 1151.4492 1875.6992 1163.3789C 1875.6992 1168.5781 1876.7695 1172.9492 1879.0117 1176.6094C 1881.3711 1180.2695 1884.0898 1182.1602 1887.2812 1182.1602C 1894.9492 1182.1602 1901.5703 1174.3594 1907 1159.0117C 1912.4297 1143.6602 1915.0312 1125 1915.0312 1103.0312C 1920.5781 1098.1797 1930.3906 1095.8203 1944.5586 1095.8203C 1943.6211 1113.6602 1943.0312 1133.7383 1943.0312 1155.6992C 1945.5117 1145.5508 1949.1719 1137.2812 1954.3711 1131.1406C 1959.4414 1125 1964.9883 1121.8086 1970.8984 1121.8086C 1979.0508 1121.8086 1986.0195 1127.7109 1991.8008 1139.3984C 1997.5898 1151.2188 2000.4297 1165.3906 2000.4297 1182.1602C 2000.4297 1187.4688 1996.7695 1192.6719 1989.4414 1197.6289C 1982.2383 1202.5898 1972.6719 1206.6094 1960.9805 1209.8008C 1962.6289 1202.8281 1963.8086 1195.7383 1964.6406 1188.6602C 1965.4688 1181.4492 1965.9414 1174.3594 1965.9414 1167.2812C 1965.9414 1161.7305 1965.3516 1156.8789 1964.0508 1152.9883C 1962.8711 1149.0898 1961.3398 1147.1992 1959.4414 1147.1992C 1954.9609 1147.1992 1951.0586 1152.5117 1947.8711 1163.3789C 1944.6797 1174.1289 1943.0312 1187 1943.0312 1202.2383C 1933.9297 1207.1992 1925.1914 1209.8008 1916.8008 1209.8008C 1915.8594 1209.8008 1915.1484 1209.2109 1914.4414 1208.2617C 1913.8516 1207.3203 1913.5 1206.1406 1913.5 1204.8398L1913.5 1204.8398L1914.2109 1161.9609C 1911.3711 1174.0117 1906.1797 1183.6914 1898.3789 1191.1406C 1890.7109 1198.4609 1882.0781 1202.2383 1872.3906 1202.2383C 1864.25 1202.2383 1857.2812 1198.4609 1851.4883 1190.7812C 1845.6992 1183.2188 1842.8711 1174.1289 1842.8711 1163.3789zM2004.6797 1204.8398C 2004.6797 1155.6992 2005.1484 1122.2812 2006.2188 1104.3281C 2011.8789 1099.3594 2022.0391 1096.7617 2036.5703 1096.7617C 2035.6289 1114.7188 2035.0312 1149.8008 2035.0312 1202.2383C 2025.9414 1207.1992 2017.4297 1209.8008 2009.6406 1209.8008C 2008.2188 1209.8008 2007.1602 1209.2109 2006.1016 1208.2617C 2005.1484 1207.3203 2004.6797 1206.1406 2004.6797 1204.8398zM2195.7812 1144.6016C 2195.7812 1153.2188 2197.0781 1160.6602 2199.6797 1166.6914C 2202.2812 1172.8281 2205.3516 1175.8984 2209.0117 1175.8984C 2212.3203 1175.8984 2215.2695 1174.8398 2217.871 1172.8281C 2220.4688 1170.8203 2222.4805 1168.1094 2223.7695 1164.6797L2223.7695 1164.6797L2202.5117 1107.0391C 2200.2695 1112.7109 2198.7305 1118.7305 2197.5508 1125.1094C 2196.371 1131.4883 2195.7812 1137.9883 2195.7812 1144.6016zM2180.3086 1238.7383C 2180.3086 1234.8398 2182.9102 1231.1797 2187.9883 1227.5117C 2193.1797 1223.8516 2199.9219 1220.8984 2208.0586 1218.6602C 2208.0586 1228.2188 2211.371 1237.9102 2218.1094 1247.7109C 2224.7188 1257.5117 2231.3281 1262.4688 2237.8281 1262.4688C 2241.371 1262.4688 2244.3281 1260.4609 2246.9219 1256.5703C 2249.5195 1252.6719 2250.8203 1247.9492 2250.8203 1242.3984C 2250.8203 1237.7891 2250.1094 1234.0117 2248.9297 1230.6992C 2247.629 1227.5117 2246.1016 1225.8594 2244.3281 1225.8594C 2241.961 1225.8594 2240.0703 1227.6289 2238.4219 1231.1797C 2236.879 1234.6016 2236.0586 1238.7383 2236.0586 1243.6992C 2234.5195 1243.3398 2232.9883 1242.3984 2231.4492 1240.7383C 2229.8008 1239.2109 2228.379 1237.1992 2227.0781 1234.8398C 2228.8516 1227.2812 2232.1602 1221.2617 2236.7695 1216.6484C 2241.4883 1212.0391 2246.6914 1209.8008 2252.4688 1209.8008C 2260.2695 1209.8008 2266.7695 1212.3984 2272.3203 1217.8281C 2277.75 1223.2617 2280.4688 1229.7617 2280.4688 1237.4297C 2280.4688 1247.1211 2276.3281 1255.3906 2268.0703 1262.1211C 2259.6797 1268.9688 2249.6406 1272.2812 2237.8281 1272.2812C 2223.8906 1272.2812 2211.8398 1269.3281 2201.5703 1263.3008C 2191.4102 1257.3984 2184.3281 1249.1289 2180.3086 1238.7383zM2347.1992 1139.6406C 2349.9219 1139.6406 2352.871 1138.6992 2355.9414 1137.0391C 2359.0117 1135.2695 2362.0781 1132.6719 2365.1484 1129.3711L2365.1484 1129.3711L2365.9805 1105.7383C 2368.8086 1103.2617 2372.711 1101.3711 2377.789 1100.0703C 2382.75 1098.7695 2388.6484 1098.1797 2395.5117 1098.1797C 2394.4492 1116.0195 2393.9688 1150.7383 2393.9688 1202.2383C 2384.879 1207.1992 2376.379 1209.8008 2368.5781 1209.8008C 2367.3984 1209.8008 2366.4492 1208.9688 2365.621 1207.5586C 2364.8008 1206.0195 2364.4414 1204.25 2364.4414 1202.2383L2364.4414 1202.2383L2365.1484 1147.1992C 2362.4297 1149.5586 2359.8398 1151.4492 2357.2383 1152.6289C 2354.7617 1153.8086 2352.5117 1154.3984 2350.3906 1154.3984C 2349.5586 1154.3984 2348.7305 1153.9297 2348.1406 1152.9883C 2347.5508 1152.0391 2347.1992 1150.8594 2347.1992 1149.5586zM2408.8516 1164.6797C 2408.8516 1147.9102 2413.5781 1133.7383 2423.2617 1122.0391C 2432.8281 1110.2305 2444.3984 1104.3281 2457.9883 1104.3281C 2462.711 1104.3281 2466.961 1106.2109 2470.7383 1109.8711C 2474.5195 1113.5391 2477.121 1118.3789 2478.6602 1124.5195C 2477.3594 1122.8711 2475.8203 1121.6914 2474.0508 1120.8594C 2472.1602 1119.9219 2470.1484 1119.5586 2467.9102 1119.5586C 2461.5312 1119.5586 2456.1016 1123.1016 2451.6094 1130.4297C 2447.2383 1137.75 2444.9883 1146.6094 2444.9883 1157.1211C 2444.9883 1161.25 2446.0586 1164.8008 2448.3008 1167.75C 2450.539 1170.6992 2453.2617 1172.2383 2456.4492 1172.2383C 2462.9492 1172.2383 2468.9688 1165.3906 2474.3984 1151.6914C 2479.961 1138.1094 2482.6719 1123.1016 2482.6719 1107.0391C 2485.9805 1104.0898 2490.2305 1101.8398 2495.1914 1100.3086C 2500.1484 1098.8906 2505.9414 1098.1797 2512.1992 1098.1797C 2511.1406 1117.9102 2510.5508 1152.6289 2510.5508 1202.2383C 2501.4492 1207.1992 2492.711 1209.8008 2484.211 1209.8008C 2483.379 1209.8008 2482.5508 1208.9688 2481.961 1207.5586C 2481.371 1206.0195 2481.0195 1204.25 2481.0195 1202.2383L2481.0195 1202.2383L2481.8398 1157.1211C 2476.6484 1170.9414 2469.8008 1181.9219 2461.5312 1190.0781C 2453.1406 1198.1016 2444.289 1202.2383 2435.0703 1202.2383C 2427.871 1202.2383 2421.6094 1198.5781 2416.5312 1191.25C 2411.3398 1183.9297 2408.8516 1175.0703 2408.8516 1164.6797zM2076.379 1035.5781C 2076.379 1034.8711 2076.6094 1034.1719 2077.1992 1033.4609C 2077.789 1032.75 2078.621 1032.1602 2079.5586 1031.5703L2079.5586 1031.5703L2099.3984 1024.0117C 2102.2383 1022.46875 2105.539 1021.7617 2109.0898 1021.7617C 2110.5117 1021.7617 2112.039 1022.58984 2113.8086 1024.3594C 2115.5781 1026.0195 2117.3594 1028.5 2119.0117 1031.5703L2119.0117 1031.5703L2124.3203 1039.7188C 2128.1016 1033.9297 2132.4688 1029.5586 2137.5586 1026.3711C 2142.629 1023.3008 2147.9492 1021.7617 2153.5 1021.7617C 2158.2188 1021.7617 2162.3594 1022.2383 2166.0195 1023.3008C 2169.5586 1024.3594 2172.629 1025.8984 2174.879 1028.0312C 2174.879 1030.2695 2173.5781 1033.4609 2170.9805 1037.7109C 2168.2617 1041.9609 2166.25 1044.0898 2164.961 1044.0898C 2162.4688 1041.0195 2160 1038.5391 2157.629 1036.8789C 2155.2695 1035.1094 2153.0312 1034.2812 2150.8984 1034.2812C 2146.8906 1034.2812 2143.3398 1036.1797 2140.5117 1040.0781C 2137.6719 1043.9688 2136.25 1048.6914 2136.25 1054.3711C 2136.25 1058.8516 2137.0781 1062.8711 2138.8516 1066.3008C 2140.5117 1069.8281 2142.75 1072.0781 2145.3516 1073.1406C 2143.1094 1075.1484 2140.8594 1076.6914 2138.9688 1077.75C 2136.961 1078.8086 2135.1914 1079.4102 2133.6602 1079.4102L2133.6602 1079.4102L2490.9414 1079.4102C 2488.461 1077.0391 2486.4492 1074.2109 2484.9219 1070.6719C 2483.5 1067 2482.6719 1063.2188 2482.6719 1059.3281C 2482.6719 1050.1094 2486.4492 1041.4883 2493.7695 1033.5781C 2501.2188 1025.6602 2509.25 1021.7617 2517.9883 1021.7617C 2522.711 1021.7617 2526.8516 1022.2383 2530.5117 1023.3008C 2534.1719 1024.3594 2537.121 1025.8984 2539.371 1028.0312C 2539.371 1030.2695 2538.0586 1033.4609 2535.4688 1037.7109C 2532.871 1041.9609 2530.8594 1044.0898 2529.4414 1044.0898C 2526.961 1041.0195 2524.7188 1038.5391 2522.8281 1036.8789C 2520.9414 1035.1094 2519.289 1034.2812 2517.9883 1034.2812C 2514.9219 1034.2812 2512.1992 1035.5781 2509.961 1038.3008C 2507.711 1041.0195 2506.6484 1044.2109 2506.6484 1048.1094C 2506.6484 1051.5312 2507.4688 1055.0703 2509.25 1058.7383C 2511.0195 1062.3984 2513.379 1065.5898 2516.3281 1068.1797L2516.3281 1068.1797L2497.5508 1079.4102L2691.961 1079.4102L2691.961 1094.5195L2621.6914 1094.5195C 2622.3906 1095.8203 2623.1016 1097.2383 2623.461 1098.5391C 2623.8086 1099.8398 2624.0508 1101.0195 2624.0508 1102.0781C 2624.0508 1106.3281 2621.1016 1110.5781 2615.1914 1114.6016C 2609.289 1118.5 2601.6094 1121.8086 2592.1602 1124.5195C 2582.8281 1126.8789 2575.1484 1131.4883 2569.129 1138.1094C 2563.1094 1144.8281 2560.0312 1152.0391 2560.0312 1159.7188C 2560.0312 1164.9219 2561.1016 1169.3984 2563.3398 1173.1797C 2565.5781 1177.0781 2568.3008 1179.2109 2571.6094 1179.8008C 2571.0195 1178.1406 2570.6719 1176.1289 2570.3086 1173.6602C 2570.0781 1171.0586 2569.9492 1168.1094 2569.9492 1164.6797C 2569.9492 1157 2573.2617 1150.5117 2580 1145.0703C 2586.7305 1139.6406 2594.879 1137.0391 2604.4414 1137.0391C 2613.539 1137.0391 2621.211 1139.3984 2627.6016 1144.25C 2633.9688 1149.2109 2637.1602 1155.1094 2637.1602 1161.9609C 2637.1602 1169.6406 2633.5 1176.1289 2626.1719 1181.5703C 2618.8594 1187 2609.879 1189.7188 2599.4805 1189.7188C 2601.4883 1195.0391 2604.4414 1199.2891 2608.2188 1202.4688C 2612 1205.5508 2616.25 1207.0781 2620.7383 1207.0781C 2623.461 1207.0781 2626.1719 1206.3711 2629.0117 1204.8398C 2627.711 1208.1484 2624.879 1211.4492 2620.5117 1214.7617C 2616.1406 1217.9492 2612.4688 1219.6016 2609.4102 1219.6016C 2600.7812 1219.6016 2593.3398 1217.1211 2586.7305 1212.2812C 2580.2305 1207.3203 2575.629 1200.5781 2573.1406 1192.3203C 2560.0312 1192.3203 2548.6992 1189.0117 2539.4805 1182.3984C 2530.1484 1175.7812 2525.539 1167.75 2525.539 1158.4219C 2525.539 1150.1484 2529.3203 1142.4805 2537 1135.1484C 2544.5586 1127.8281 2554.25 1122.6289 2565.8203 1119.5586C 2573.5 1117.4297 2579.6406 1114.8398 2584.25 1111.7695C 2588.9688 1108.8086 2591.211 1105.5 2591.211 1102.0781C 2591.211 1099.9492 2590.8594 1098.1797 2590.0312 1096.6484C 2589.3281 1095.2305 2588.2617 1094.5195 2587.1992 1094.5195L2587.1992 1094.5195L2332.3203 1094.5195C 2337.2812 1097.2383 2341.1797 1101.6094 2344.25 1107.5117C 2347.1992 1113.4219 2348.7305 1119.9219 2348.7305 1127.1211C 2348.7305 1135.2695 2344.6016 1143.0703 2336.211 1150.6289C 2327.8281 1158.1797 2317.3203 1163.7383 2304.5586 1167.2812C 2308.2188 1168.2188 2312 1169.8789 2315.6602 1172.2383C 2319.3281 1174.4805 2322.629 1177.3203 2325.8203 1180.75C 2328.539 1183.6914 2331.0195 1185.9414 2333.2617 1187.4688C 2335.5117 1188.8906 2337.3984 1189.7188 2339.0508 1189.7188C 2340.711 1189.7188 2342.3594 1189.4883 2344.0117 1189.0117C 2345.5508 1188.5391 2347.1992 1187.9492 2348.7305 1187L2348.7305 1187L2350.3906 1189.7188C 2348.0312 1195.9805 2345.3086 1200.8203 2342.121 1204.3711C 2338.9297 1207.9102 2335.629 1209.8008 2332.3203 1209.8008C 2327.4688 1209.8008 2322.629 1208.3789 2317.789 1205.5508C 2313.0586 1202.8281 2308.5781 1198.8203 2304.5586 1193.6094C 2299.7188 1187.4688 2295.4688 1182.75 2291.8008 1179.4414C 2288.1484 1176.1289 2285.1914 1174.4805 2283.1914 1174.4805C 2282.8281 1174.4805 2281.7695 1175.4297 2279.7617 1177.1992L2279.7617 1177.1992L2283.1914 1152.1602L2294.6406 1152.1602C 2300.539 1152.1602 2305.629 1149.2109 2309.7617 1143.3008C 2313.8906 1137.2812 2316.0195 1130.1914 2316.0195 1121.8086C 2316.0195 1116.6094 2314.371 1111.5312 2311.0586 1106.4492C 2307.75 1101.3711 2303.379 1097.4688 2297.8281 1094.5195L2297.8281 1094.5195L2209.0117 1094.5195L2230.2695 1157.1211C 2231.5703 1155.3516 2233.2188 1150.2695 2235.2305 1141.8906L2235.2305 1141.8906L2236.0586 1105.7383C 2239.371 1102.7891 2243.621 1100.5391 2248.5781 1099.0117C 2253.539 1097.5898 2259.3281 1096.7617 2265.711 1096.7617C 2264.5195 1116.6094 2263.9297 1151.8086 2263.9297 1202.2383C 2254.8398 1207.1992 2246.3281 1209.8008 2238.539 1209.8008C 2237.3594 1209.8008 2236.4102 1208.9688 2235.5898 1207.5586C 2234.7617 1206.0195 2234.4102 1204.25 2234.4102 1202.2383L2234.4102 1202.2383L2235.2305 1164.6797C 2231.4492 1174.7188 2226.4883 1182.6289 2220.3516 1188.5391C 2214.0898 1194.3281 2207.5898 1197.2812 2200.7383 1197.2812C 2190.8203 1197.2812 2182.4414 1192.7891 2175.3516 1184.0508C 2168.2617 1175.3086 2164.7188 1164.6797 2164.7188 1152.1602C 2164.7188 1141.6484 2165.5508 1131.6094 2167.1992 1121.8086C 2168.8594 1112.1211 2171.3281 1103.0312 2174.5195 1094.5195L2174.5195 1094.5195L2092.5508 1094.5195C 2096.9219 1096.1797 2100.4688 1099.1289 2103.1914 1103.3789C 2105.8984 1107.5117 2107.3203 1112 2107.3203 1116.9609C 2107.3203 1127.3516 2103.7812 1136.2109 2096.9219 1143.5391C 2090.0703 1150.8594 2081.8086 1154.3984 2072.121 1154.3984C 2072.121 1162.0781 2073.8906 1168.5781 2077.5508 1174.0117C 2081.2188 1179.4414 2085.5898 1182.1602 2090.8984 1182.1602C 2096.1016 1182.1602 2101.289 1178.3789 2106.2617 1171.0586C 2111.211 1163.6211 2115.1094 1153.9297 2118.0703 1141.8906L2118.0703 1141.8906L2118.8906 1105.7383C 2121.7305 1103.2617 2125.629 1101.3711 2130.6992 1100.0703C 2135.6602 1098.7695 2141.5703 1098.1797 2148.4219 1098.1797C 2147.2383 1117.9102 2146.6484 1152.6289 2146.6484 1202.2383C 2137.5586 1207.1992 2128.8203 1209.8008 2120.4297 1209.8008C 2119.4805 1209.8008 2118.7695 1208.9688 2118.0703 1207.5586C 2117.4805 1206.0195 2117.121 1204.25 2117.121 1202.2383L2117.121 1202.2383L2117.121 1172.2383C 2113.5781 1181.4492 2108.9688 1188.6602 2103.0703 1194.0898C 2097.2812 1199.5195 2091.0195 1202.2383 2084.4102 1202.2383C 2071.6484 1202.2383 2060.7812 1197.2812 2051.8086 1187.5898C 2042.8281 1177.7891 2038.3398 1165.9805 2038.3398 1152.1602C 2038.3398 1150.0312 2038.9297 1148.2617 2040.2305 1146.7305C 2041.5312 1145.3086 2043.1797 1144.6016 2044.9492 1144.6016C 2053.1016 1144.6016 2060.0703 1141.8906 2065.8594 1136.4492C 2071.6484 1131.0195 2074.4805 1124.5195 2074.4805 1116.9609C 2074.4805 1111.2891 2073.4219 1106.4492 2071.3008 1102.1992C 2069.0508 1097.9492 2066.3281 1095.3516 2063.0312 1094.5195L2063.0312 1094.5195L1648.1094 1094.5195C 1653.0703 1097.2383 1656.9609 1101.6094 1660.0312 1107.5117C 1662.9883 1113.4219 1664.5195 1119.9219 1664.5195 1127.1211C 1664.5195 1135.2695 1660.3906 1143.0703 1652 1150.6289C 1643.6211 1158.1797 1633.1016 1163.7383 1620.3516 1167.2812C 1624.1289 1168.2188 1627.7891 1169.8789 1631.4492 1172.2383C 1635.1211 1174.4805 1638.4219 1177.3203 1641.6094 1180.75C 1644.4492 1183.6914 1646.8008 1185.9414 1649.0508 1187.4688C 1651.2891 1188.8906 1653.1914 1189.7188 1654.8398 1189.7188C 1656.4883 1189.7188 1658.1406 1189.4883 1659.8008 1189.0117C 1661.3398 1188.5391 1662.9883 1187.9492 1664.5195 1187L1664.5195 1187L1666.2891 1189.7188C 1663.8086 1195.9805 1661.1016 1200.8203 1657.9102 1204.3711C 1654.7188 1207.9102 1651.4102 1209.8008 1648.1094 1209.8008C 1643.2617 1209.8008 1638.4219 1208.3789 1633.5781 1205.5508C 1628.8516 1202.8281 1624.3594 1198.8203 1620.3516 1193.6094C 1615.5117 1187.4688 1611.25 1182.75 1607.5898 1179.4414C 1603.9297 1176.1289 1600.9805 1174.4805 1598.9688 1174.4805C 1598.6211 1174.4805 1597.5508 1175.4297 1595.5508 1177.1992L1595.5508 1177.1992L1598.9688 1152.1602L1610.4297 1152.1602C 1616.3281 1152.1602 1621.4102 1149.2109 1625.5391 1143.3008C 1629.6797 1137.2812 1631.8086 1130.1914 1631.8086 1121.8086C 1631.8086 1116.6094 1630.1484 1111.5312 1626.8516 1106.4492C 1623.5391 1101.3711 1619.1719 1097.4688 1613.6211 1094.5195L1613.6211 1094.5195L1592 1094.5195L1592 1079.4102L2133.6602 1079.4102C 2129.1719 1079.4102 2125.1484 1078.4609 2121.7305 1076.6914C 2118.3008 1075.0391 2115.8203 1072.5508 2114.0508 1069.4805L2114.0508 1069.4805L2098.5781 1046.8086C 2096.8008 1043.6094 2094.5586 1041.1406 2091.8398 1039.4805C 2089.129 1037.7109 2086.1797 1036.8789 2082.871 1036.8789C 2078.5 1036.8789 2076.379 1036.4102 2076.379 1035.5781zM2309.6406 884.51953C 2309.6406 888.66016 2310 892.3203 2310.5898 895.26953C 2311.289 898.21875 2312 899.6406 2312.9492 899.6406C 2315.0703 899.6406 2316.1406 888.78125 2316.1406 867.03906L2316.1406 867.03906L2315.5508 853.21875C 2313.6484 855.6992 2312.2383 859.60156 2311.1797 865.14844C 2310.2305 870.5781 2309.6406 877.0781 2309.6406 884.51953zM2517.039 902.2383C 2517.039 890.4297 2520.6992 878.85156 2527.9102 867.6289C 2535.121 856.28906 2544.6797 847.3203 2556.4883 840.6992C 2556.4883 827 2555.7812 815.66016 2554.371 806.5703C 2552.9492 797.48047 2550.9414 792.9883 2548.3398 792.9883C 2546.4492 792.9883 2544.9219 794.6406 2543.621 797.8281C 2542.3203 801.01953 2541.6094 804.91016 2541.6094 809.41016C 2541.6094 814.0117 2542.9102 817.78906 2545.2695 820.8594C 2547.75 824.0508 2550.6992 825.58984 2554.129 825.58984C 2551.289 831.85156 2547.629 836.8086 2543.379 840.35156C 2539.129 843.8906 2534.7617 845.66016 2530.1484 845.66016C 2525.6719 845.66016 2521.7695 843.8906 2518.5781 840.23047C 2515.3906 836.5703 2513.8516 832.0781 2513.8516 826.8789C 2513.8516 816.2617 2517.871 806.5703 2525.8984 797.71094C 2534.0508 788.85156 2542.789 784.3594 2552.3594 784.3594C 2561.4492 784.3594 2569.25 788.5 2575.629 796.53125C 2582 804.5586 2585.1914 814.25 2585.1914 825.58984C 2591.6914 819.91016 2597.5898 815.5508 2603.0312 812.58984C 2608.5781 809.6406 2613.3008 808.10156 2617.1992 808.10156C 2619.5586 808.10156 2621.4492 809.1719 2623.1016 811.41016C 2624.6406 813.53906 2625.4688 816.2617 2625.4688 819.3281C 2624.879 829.25 2624.6406 860.1914 2624.6406 912.16016C 2620.039 914.6406 2615.4297 916.53125 2610.9414 917.8281C 2606.3281 919.1289 2601.8516 919.71875 2597.4805 919.71875C 2596.5312 919.71875 2595.6992 919.0117 2595.1094 917.48047C 2594.5195 916.0586 2594.1719 914.28125 2594.1719 912.16016L2594.1719 912.16016L2595.1094 840.6992C 2595.1094 839.28125 2594.7617 838.1094 2594.1719 837.16016C 2593.461 836.21094 2592.75 835.7383 2591.8008 835.7383C 2590.9805 835.7383 2590.0312 836.10156 2588.9688 836.6914C 2587.789 837.28125 2586.4883 838.21875 2585.1914 839.39844C 2585.1914 862.3203 2580.2305 881.9297 2570.4297 898.1094C 2560.7383 914.28125 2548.9297 922.3203 2535.121 922.3203C 2530.1484 922.3203 2525.8984 920.4297 2522.3594 916.53125C 2518.8086 912.6289 2517.039 907.78906 2517.039 902.2383zM2547.3906 897.03906C 2547.3906 899.1719 2547.629 900.9414 2548.1016 902.3594C 2548.5781 903.8906 2549.1719 904.60156 2549.879 904.60156C 2552.3594 904.60156 2554.0117 900.35156 2555.0703 891.96094C 2556.0195 883.5781 2556.4883 871.8789 2556.4883 857.1211C 2553.6602 859.60156 2551.4102 864.3281 2549.879 871.53125C 2548.2188 878.6211 2547.3906 887.1211 2547.3906 897.03906zM319.48438 1199.8789C 319.48438 1153.2188 319.95703 1120.9805 321.01953 1103.0312C 326.45312 1098.1797 336.2539 1095.8203 350.54688 1095.8203C 349.48047 1113.6602 349.01172 1149.2109 349.01172 1202.2383C 339.91406 1207.1992 332.23828 1209.8008 325.98047 1209.8008C 324.08984 1209.8008 322.5547 1208.7383 321.375 1206.8398C 320.07422 1204.9609 319.48438 1202.5898 319.48438 1199.8789zM364.01172 1178.5C 364.01172 1156.0586 373.33984 1136.8086 392.0039 1120.8594C 410.66406 1104.8008 433.10547 1096.7617 459.20703 1096.7617C 462.39844 1096.7617 465.11328 1098.1797 467.35547 1100.8984C 469.60156 1103.6211 470.66406 1106.8086 470.66406 1110.6992C 469.48438 1130.4297 469.01172 1161.3711 469.01172 1203.5391C 466.64844 1205.5508 463.33984 1207.0781 458.85547 1208.1484C 454.48438 1209.2109 449.16797 1209.8008 442.91016 1209.8008C 441.96484 1209.8008 441.13672 1209.2109 440.4297 1208.2617C 439.83984 1207.3203 439.48438 1206.1406 439.48438 1204.8398C 439.48438 1164.4414 439.95703 1134.3281 441.13672 1114.6016C 436.53125 1115.3086 431.92578 1116.6094 427.5547 1118.7305C 423.0664 1120.8594 418.8125 1123.5781 414.91406 1127.1211C 417.98828 1129.8398 420.34766 1133.8516 422.1211 1139.1719C 423.89453 1144.4805 424.71875 1150.5117 424.71875 1157.1211C 424.71875 1172.5898 421.41016 1185.8203 414.6797 1196.8086C 407.94922 1207.9102 399.79688 1213.3398 390.23047 1213.3398C 382.3164 1213.3398 375.9375 1210.2695 371.21484 1203.8906C 366.3711 1197.5117 364.01172 1189.0117 364.01172 1178.5zM396.13672 1172.2383C 396.13672 1178.5 396.60938 1183.6914 397.67188 1188.0703C 398.73438 1192.4297 400.15234 1194.5586 401.6875 1194.5586C 404.8789 1194.5586 407.59375 1190.6719 409.95703 1182.8711C 412.19922 1175.0703 413.3828 1165.6211 413.3828 1154.3984C 413.3828 1150.1484 412.67188 1146.1406 411.48828 1142.5898C 410.3086 1139.0508 408.77344 1136.3281 406.64844 1134.6797C 403.34375 1138.1094 400.7422 1143.1797 398.85547 1149.9219C 397.08203 1156.5312 396.13672 1163.9688 396.13672 1172.2383zM487.5547 1066.8789C 487.5547 1056.9609 494.05078 1046.9219 506.8086 1036.8789C 519.6797 1026.7305 532.4375 1021.7617 545.0742 1021.7617C 557.2383 1021.7617 568.5781 1025.5508 579.08984 1033.3398C 589.4844 1041.0195 597.8672 1051.7617 604.1289 1065.5898C 602.2383 1069.0117 598.8164 1071.7305 594.08984 1073.7305C 589.2461 1075.7383 583.5781 1076.6914 576.96484 1076.6914C 573.89453 1064.0508 569.28516 1053.7695 563.14453 1045.9805C 557.0039 1038.1797 550.3906 1034.2812 543.41797 1034.2812C 537.8711 1034.2812 532.4375 1038.4219 527.0039 1046.8086C 521.5703 1055.0703 518.85156 1063.4609 518.85156 1071.8516C 518.85156 1073.3789 519.21094 1074.8008 519.91797 1076.2188C 520.625 1077.6289 521.6875 1078.6992 522.8672 1079.4102L522.8672 1079.4102L840.7031 1079.4102L840.7031 1094.5195L696.96484 1094.5195C 694.4844 1095.8203 692.47656 1098.1797 691.0586 1101.3711C 689.51953 1104.5586 688.8125 1108.1016 688.8125 1112C 688.8125 1115.4219 689.8789 1118.6094 692.1211 1121.4492C 694.3672 1124.2891 697.08203 1126.1719 700.3906 1127.1211C 702.75 1127.7109 704.7617 1128.7812 706.29297 1130.1914C 707.8281 1131.6094 708.53906 1133.0312 708.53906 1134.6797C 708.53906 1136.2109 707.8281 1138.1094 706.41016 1140.3516C 704.8789 1142.5898 702.8711 1144.8281 700.27344 1147.1992C 696.2578 1150.6289 693.0664 1154.6406 690.7031 1159.1289C 688.46094 1163.6211 687.27734 1167.9883 687.27734 1172.2383C 687.27734 1174.25 688.10547 1176.0195 689.6406 1177.5508C 691.1797 1178.9688 693.1836 1179.8008 695.4297 1179.8008C 699.6797 1179.8008 704.16797 1175.8984 709.1289 1168.1094C 713.97266 1160.4297 718.46094 1150.0312 722.3594 1137.0391L722.3594 1137.0391L722.3594 1164.6797C 717.7539 1176.9609 711.6094 1186.7695 704.16797 1193.9688C 696.6094 1201.1719 688.8125 1204.8398 680.5469 1204.8398C 672.8672 1204.8398 666.2539 1202.1211 660.8242 1196.6914C 655.5078 1191.3711 652.78906 1184.7617 652.78906 1177.1992C 652.78906 1170.6992 654.08984 1164.6797 656.8086 1159.0117C 659.40625 1153.3398 663.0664 1148.9688 667.4336 1145.8984C 675.23047 1140.2305 679.0117 1137.2812 679.0117 1137.0391C 679.0117 1135.9805 676.29297 1134.3281 670.8594 1132.0781C 666.01953 1130.0703 662.0039 1127.2383 658.9336 1123.5781C 655.8633 1119.8008 654.3281 1115.8984 654.3281 1112C 654.3281 1108.8086 655.03516 1105.7383 656.5703 1102.5508C 657.9883 1099.4805 659.9961 1096.7617 662.71094 1094.5195L662.71094 1094.5195L308.3828 1094.5195L308.3828 1079.4102L322.67188 1079.4102C 321.13672 1077.2812 319.83594 1075.1484 319.01172 1072.9102C 318.1836 1070.7812 317.71094 1068.7695 317.71094 1066.8789C 317.71094 1056.9609 324.20703 1046.9219 337.08203 1036.8789C 349.83594 1026.7305 362.59375 1021.7617 375.23047 1021.7617C 387.39844 1021.7617 398.73438 1025.5508 409.2461 1033.3398C 419.7578 1041.0195 428.02734 1051.7617 434.28516 1065.5898C 432.39453 1069.0117 429.08984 1071.7305 424.2461 1073.7305C 419.52344 1075.7383 413.73438 1076.6914 407.23828 1076.6914C 404.16797 1064.0508 399.5625 1053.7695 393.41797 1045.9805C 387.27734 1038.1797 380.66406 1034.2812 373.57812 1034.2812C 368.14453 1034.2812 362.59375 1038.4219 357.16016 1046.8086C 351.73047 1055.0703 349.01172 1063.4609 349.01172 1071.8516C 349.01172 1073.3789 349.36328 1074.8008 350.07422 1076.2188C 350.78125 1077.6289 351.84766 1078.6992 353.02734 1079.4102L353.02734 1079.4102L492.51562 1079.4102C 490.97656 1077.2812 489.6797 1075.1484 488.85547 1072.9102C 488.02734 1070.7812 487.5547 1068.7695 487.5547 1066.8789zM489.32422 1199.8789C 489.32422 1153.2188 489.79688 1120.9805 490.85938 1103.0312C 496.29297 1098.1797 506.09766 1095.8203 520.3906 1095.8203C 519.3281 1113.6602 518.85156 1149.2109 518.85156 1202.2383C 509.7578 1207.1992 501.96484 1209.8008 495.8203 1209.8008C 493.9336 1209.8008 492.39453 1208.7383 491.09766 1206.8398C 489.91406 1204.9609 489.32422 1202.5898 489.32422 1199.8789zM533.85547 1164.6797C 533.85547 1147.9102 538.5781 1133.7383 548.2617 1122.0391C 557.8281 1110.2305 569.40234 1104.3281 582.9883 1104.3281C 587.71094 1104.3281 592.08203 1106.2109 595.7422 1109.8711C 599.52344 1113.5391 602.1211 1118.3789 603.65625 1124.5195C 602.35547 1122.8711 600.8203 1121.6914 599.0508 1120.8594C 597.16016 1119.9219 595.15234 1119.5586 592.91016 1119.5586C 586.53125 1119.5586 581.09766 1123.1016 576.6094 1130.4297C 572.2383 1137.75 569.9922 1146.6094 569.9922 1157.1211C 569.9922 1161.25 571.0586 1164.8008 573.3008 1167.75C 575.5469 1170.6992 578.2617 1172.2383 581.4531 1172.2383C 587.9453 1172.2383 593.97266 1165.3906 599.40625 1151.6914C 604.9531 1138.1094 607.6719 1123.1016 607.6719 1107.0391C 610.98047 1104.0898 615.23047 1101.8398 620.1914 1100.3086C 625.15234 1098.8906 630.9414 1098.1797 637.1992 1098.1797C 636.1367 1117.9102 635.5469 1152.6289 635.5469 1202.2383C 626.4531 1207.1992 617.71094 1209.8008 609.20703 1209.8008C 608.3828 1209.8008 607.5547 1208.9688 606.96484 1207.5586C 606.3711 1206.0195 606.01953 1204.25 606.01953 1202.2383L606.01953 1202.2383L606.84375 1157.1211C 601.64844 1170.9414 594.8008 1181.9219 586.53125 1190.0781C 578.14453 1198.1016 569.28516 1202.2383 560.0742 1202.2383C 552.8711 1202.2383 546.6094 1198.5781 541.53125 1191.25C 536.33203 1183.9297 533.85547 1175.0703 533.85547 1164.6797zM607.6719 1059.3281C 607.6719 1050.1094 611.4492 1041.4883 618.77344 1033.5781C 626.21484 1025.6602 634.2461 1021.7617 643.10547 1021.7617C 647.71094 1021.7617 651.84766 1022.2383 655.5078 1023.3008C 659.16797 1024.3594 662.1211 1025.8984 664.3633 1028.0312C 664.3633 1030.2695 663.0664 1033.4609 660.46875 1037.7109C 657.8672 1041.9609 655.8633 1044.0898 654.4453 1044.0898C 651.96484 1041.0195 649.71875 1038.5391 647.83203 1036.8789C 645.9414 1035.1094 644.28516 1034.2812 643.10547 1034.2812C 639.91406 1034.2812 637.1992 1035.5781 634.95703 1038.3008C 632.71094 1041.0195 631.64844 1044.2109 631.64844 1048.1094C 631.64844 1051.5312 632.47656 1055.0703 634.2461 1058.7383C 636.01953 1062.3984 638.3828 1065.5898 641.33594 1068.1797L641.33594 1068.1797L622.5547 1079.4102L615.9375 1079.4102C 613.46094 1077.0391 611.4492 1074.2109 609.91406 1070.6719C 608.5 1067 607.6719 1063.2188 607.6719 1059.3281zM723.77344 1178.5C 723.77344 1156.0586 733.10547 1136.8086 751.7656 1120.8594C 770.4297 1104.8008 792.8711 1096.7617 818.97266 1096.7617C 822.16016 1096.7617 824.8789 1098.1797 827.1211 1100.8984C 829.3633 1103.6211 830.4258 1106.8086 830.4258 1110.6992C 829.3633 1130.4297 828.77344 1161.3711 828.77344 1203.5391C 826.41406 1205.5508 823.10547 1207.0781 818.6172 1208.1484C 814.2461 1209.2109 808.9336 1209.8008 802.6719 1209.8008C 801.73047 1209.8008 800.89844 1209.2109 800.1914 1208.2617C 799.60156 1207.3203 799.2461 1206.1406 799.2461 1204.8398C 799.2461 1164.4414 799.83594 1134.3281 800.89844 1114.6016C 796.29297 1115.3086 791.6875 1116.6094 787.3164 1118.7305C 782.8281 1120.8594 778.5781 1123.5781 774.6797 1127.1211C 777.75 1129.8398 780.1133 1133.8516 781.8828 1139.1719C 783.65625 1144.4805 784.4844 1150.5117 784.4844 1157.1211C 784.4844 1172.5898 781.1758 1185.8203 774.4453 1196.8086C 767.71094 1207.9102 759.5625 1213.3398 750.1133 1213.3398C 742.08203 1213.3398 735.7031 1210.2695 730.98047 1203.8906C 726.1367 1197.5117 723.77344 1189.0117 723.77344 1178.5zM755.90234 1172.2383C 755.90234 1178.5 756.3711 1183.6914 757.4375 1188.0703C 758.6172 1192.4297 759.91406 1194.5586 761.4492 1194.5586C 764.6406 1194.5586 767.35547 1190.6719 769.71875 1182.8711C 771.96484 1175.0703 773.14453 1165.6211 773.14453 1154.3984C 773.14453 1150.1484 772.5547 1146.1406 771.2578 1142.5898C 770.0742 1139.0508 768.53906 1136.3281 766.41406 1134.6797C 763.10547 1138.1094 760.5078 1143.1797 758.6172 1149.9219C 756.84375 1156.5312 755.90234 1163.9688 755.90234 1172.2383zM802.6719 1037.8281C 802.6719 1032.2812 803.85156 1027.5508 806.4531 1023.66016C 809.0508 1019.7617 812.1211 1017.75 815.78125 1017.75C 819.4453 1017.75 822.5156 1019.7617 825.1133 1023.66016C 827.59375 1027.5508 828.89453 1032.2812 828.89453 1037.8281C 828.89453 1043.5 827.59375 1048.2188 825.1133 1052.2383C 822.5156 1056.25 819.4453 1058.2617 815.78125 1058.2617C 812.1211 1058.2617 809.0508 1056.25 806.4531 1052.2383C 803.85156 1048.2188 802.6719 1043.5 802.6719 1037.8281zM896.33203 1163.3789C 896.33203 1147.9102 900.58594 1134.5586 909.3242 1123.5781C 917.9492 1112.4688 928.46094 1107.0391 940.7422 1107.0391C 945.46875 1107.0391 950.0742 1108.9297 954.5625 1112.8281C 958.9336 1116.7305 961.41406 1121.1016 962.0039 1125.8203C 960.8242 1124.1719 959.28516 1122.9883 957.6328 1122.1602C 955.8594 1121.2109 954.08984 1120.8594 952.08203 1120.8594C 945.8203 1120.8594 940.3867 1125 935.78125 1133.1484C 931.29297 1141.4102 929.0508 1151.4492 929.0508 1163.3789C 929.0508 1168.5781 930.23047 1172.9492 932.47656 1176.6094C 934.83984 1180.2695 937.5547 1182.1602 940.7422 1182.1602C 948.4219 1182.1602 955.03516 1174.3594 960.46875 1159.0117C 965.78125 1143.6602 968.5 1125 968.5 1103.0312C 973.9336 1098.1797 983.85547 1095.8203 998.02734 1095.8203C 997.08203 1113.6602 996.4922 1133.7383 996.4922 1155.6992C 998.85547 1145.5508 1002.6289 1137.2812 1007.8281 1131.1406C 1012.91016 1125 1018.46094 1121.8086 1024.3594 1121.8086C 1032.5117 1121.8086 1039.4805 1127.7109 1045.2695 1139.3984C 1050.9414 1151.2188 1053.8906 1165.3906 1053.8906 1182.1602C 1053.8906 1187.4688 1050.2305 1192.6719 1042.9102 1197.6289C 1035.6992 1202.5898 1026.1406 1206.6094 1014.4414 1209.8008C 1015.98047 1202.8281 1017.28125 1195.7383 1018.1094 1188.6602C 1018.9297 1181.4492 1019.39844 1174.3594 1019.39844 1167.2812C 1019.39844 1161.7305 1018.8086 1156.8789 1017.5117 1152.9883C 1016.21875 1149.0898 1014.6797 1147.1992 1012.91016 1147.1992C 1008.3008 1147.1992 1004.51953 1152.5117 1001.3281 1163.3789C 998.14453 1174.1289 996.4922 1187 996.4922 1202.2383C 987.39844 1207.1992 978.65625 1209.8008 970.26953 1209.8008C 969.3281 1209.8008 968.5 1209.2109 967.91016 1208.2617C 967.3164 1207.3203 966.96484 1206.1406 966.96484 1204.8398L966.96484 1204.8398L967.6719 1161.9609C 964.83984 1174.0117 959.52344 1183.6914 951.84766 1191.1406C 944.16797 1198.4609 935.5469 1202.2383 925.8633 1202.2383C 917.71094 1202.2383 910.7422 1198.4609 904.9531 1190.7812C 899.16797 1183.2188 896.33203 1174.1289 896.33203 1163.3789zM911.8086 1238.7383C 911.8086 1234.8398 914.40234 1231.1797 919.60156 1227.5117C 924.7969 1223.8516 931.41016 1220.8984 939.6797 1218.6602C 939.6797 1228.2188 942.9883 1237.9102 949.60156 1247.7109C 956.33594 1257.5117 962.8281 1262.4688 969.3281 1262.4688C 972.8672 1262.4688 975.9375 1260.4609 978.53906 1256.5703C 981.01953 1252.6719 982.3164 1247.9492 982.3164 1242.3984C 982.3164 1237.7891 981.72656 1234.0117 980.4258 1230.6992C 979.2461 1227.5117 977.71094 1225.8594 975.8203 1225.8594C 973.5781 1225.8594 971.6875 1227.6289 970.03516 1231.1797C 968.5 1234.6016 967.6719 1238.7383 967.6719 1243.6992C 966.01953 1243.3398 964.4844 1242.3984 962.9453 1240.7383C 961.41406 1239.2109 959.9961 1237.1992 958.5781 1234.8398C 960.46875 1227.2812 963.65625 1221.2617 968.3828 1216.6484C 972.9883 1212.0391 978.1836 1209.8008 984.08984 1209.8008C 991.76953 1209.8008 998.3789 1212.3984 1003.8086 1217.8281C 1009.3711 1223.2617 1012.0781 1229.7617 1012.0781 1237.4297C 1012.0781 1247.1211 1007.8281 1255.3906 999.5625 1262.1211C 991.2969 1268.9688 981.2539 1272.2812 969.3281 1272.2812C 955.5078 1272.2812 943.46094 1269.3281 933.1836 1263.3008C 922.90625 1257.3984 915.8203 1249.1289 911.8086 1238.7383zM1212.6289 1174.4805C 1212.6289 1178.7305 1212.8711 1182.2812 1213.5781 1185.2305C 1214.1719 1188.1797 1214.8789 1189.7188 1215.8203 1189.7188C 1217.9492 1189.7188 1219.1289 1178.8516 1219.1289 1157.1211L1219.1289 1157.1211L1218.4219 1143.3008C 1216.5312 1145.6602 1215.1094 1149.6797 1214.1719 1155.1094C 1213.1094 1160.5508 1212.6289 1167.0391 1212.6289 1174.4805zM1217.4805 1035.5781C 1217.4805 1034.8711 1217.8281 1034.1719 1218.4219 1033.4609C 1218.8906 1032.75 1219.7188 1032.1602 1220.7812 1031.5703L1220.7812 1031.5703L1240.6211 1024.0117C 1243.4609 1022.46875 1246.6484 1021.7617 1250.3086 1021.7617C 1251.6094 1021.7617 1253.2617 1022.58984 1255.0312 1024.3594C 1256.8086 1026.0195 1258.4609 1028.5 1260.2305 1031.5703L1260.2305 1031.5703L1276.5312 1056.6094C 1278.5391 1060.2695 1281.0195 1063.2188 1284.2109 1065.3516C 1287.2812 1067.5898 1290.8203 1068.8906 1294.7188 1069.4805C 1291.0586 1072.7891 1287.5195 1075.2695 1284.2109 1076.9219C 1280.7812 1078.5781 1277.7109 1079.4102 1274.8789 1079.4102C 1270.2695 1079.4102 1266.3711 1078.4609 1262.9492 1076.6914C 1259.5195 1075.0391 1256.9219 1072.5508 1255.2695 1069.4805L1255.2695 1069.4805L1239.6797 1046.8086C 1238.0312 1043.6094 1235.7812 1041.1406 1233.0703 1039.4805C 1230.3516 1037.7109 1227.2812 1036.8789 1223.9688 1036.8789C 1219.7188 1036.8789 1217.4805 1036.4102 1217.4805 1035.5781zM1375.0391 1177.1992C 1379.8789 1175.8984 1383.7812 1173.4219 1386.9609 1169.6406C 1390.0312 1165.7383 1391.5703 1161.6094 1391.5703 1157.1211C 1391.5703 1155.6992 1391.3281 1154.5195 1390.6211 1153.5781C 1389.9219 1152.6289 1389.0898 1152.1602 1388.2617 1152.1602C 1384.25 1152.1602 1381.0586 1154.3984 1378.6992 1158.8906C 1376.2188 1163.3789 1375.0391 1169.5195 1375.0391 1177.1992zM1336.2891 1035.5781C 1336.2891 1034.8711 1336.6484 1034.1719 1337.1211 1033.4609C 1337.7109 1032.75 1338.5391 1032.1602 1339.6016 1031.5703L1339.6016 1031.5703L1359.3281 1024.0117C 1362.1602 1022.46875 1365.4688 1021.7617 1369.1289 1021.7617C 1370.4297 1021.7617 1371.9609 1022.58984 1373.7383 1024.3594C 1375.5117 1026.0195 1377.2812 1028.5 1378.9297 1031.5703L1378.9297 1031.5703L1395.3516 1056.6094C 1397.3594 1060.2695 1399.8398 1063.2188 1402.9102 1065.3516C 1406.1016 1067.5898 1409.6406 1068.8906 1413.4219 1069.4805C 1409.8789 1072.7891 1406.3281 1075.2695 1402.9102 1076.9219C 1399.6016 1078.5781 1396.5312 1079.4102 1393.6992 1079.4102C 1389.0898 1079.4102 1385.0703 1078.4609 1381.7695 1076.6914C 1378.3398 1075.0391 1375.7383 1072.5508 1373.9688 1069.4805L1373.9688 1069.4805L1358.5 1046.8086C 1356.8516 1043.6094 1354.6016 1041.1406 1351.8906 1039.4805C 1349.1719 1037.7109 1346.1016 1036.8789 1342.7891 1036.8789C 1338.4219 1036.8789 1336.2891 1036.4102 1336.2891 1035.5781zM1417.4414 1079.4102L1536.8516 1079.4102L1536.8516 1094.5195L1399.0117 1094.5195C 1399.7188 1095.8203 1400.3086 1097.2383 1400.7812 1098.5391C 1401.1406 1099.8398 1401.3711 1101.0195 1401.3711 1102.0781C 1401.3711 1106.3281 1398.4219 1110.5781 1392.5117 1114.6016C 1386.6094 1118.5 1378.9297 1121.8086 1369.4805 1124.5195C 1360.1484 1126.8789 1352.4805 1131.4883 1346.3281 1138.1094C 1340.3086 1144.8281 1337.3594 1152.0391 1337.3594 1159.7188C 1337.3594 1164.9219 1338.4219 1169.3984 1340.6719 1173.1797C 1342.9102 1177.0781 1345.6289 1179.2109 1348.9297 1179.8008C 1348.3398 1178.1406 1347.9883 1176.1289 1347.6289 1173.6602C 1347.3984 1171.0586 1347.2812 1168.1094 1347.2812 1164.6797C 1347.2812 1157 1350.5781 1150.5117 1357.3203 1145.0703C 1364.0508 1139.6406 1372.1992 1137.0391 1381.7695 1137.0391C 1390.8594 1137.0391 1398.5391 1139.3984 1404.9219 1144.25C 1411.2891 1149.2109 1414.4805 1155.1094 1414.4805 1161.9609C 1414.4805 1169.6406 1410.8203 1176.1289 1403.5 1181.5703C 1396.1797 1187 1387.1992 1189.7188 1376.8086 1189.7188C 1378.8086 1195.0391 1381.7695 1199.2891 1385.5508 1202.4688C 1389.3281 1205.5508 1393.5781 1207.0781 1398.0703 1207.0781C 1400.7812 1207.0781 1403.5 1206.3711 1406.3281 1204.8398C 1405.0312 1208.1484 1402.1992 1211.4492 1397.8281 1214.7617C 1393.4609 1217.9492 1389.8008 1219.6016 1386.7305 1219.6016C 1378.1094 1219.6016 1370.5508 1217.1211 1364.0508 1212.2812C 1357.5586 1207.3203 1352.9492 1200.5781 1350.4688 1192.3203C 1337.2383 1192.3203 1326.0195 1189.0117 1316.8086 1182.3984C 1307.4805 1175.7812 1302.8711 1167.75 1302.8711 1158.4219C 1302.8711 1150.1484 1306.6484 1142.4805 1314.3281 1135.1484C 1321.8789 1127.8281 1331.5703 1122.6289 1343.1484 1119.5586C 1350.8203 1117.4297 1356.9609 1114.8398 1361.5703 1111.7695C 1366.3008 1108.8086 1368.5391 1105.5 1368.5391 1102.0781C 1368.5391 1099.9492 1368.1797 1098.1797 1367.3594 1096.6484C 1366.5312 1095.2305 1365.5898 1094.5195 1364.5195 1094.5195L1364.5195 1094.5195L1247.1211 1094.5195C 1249.25 1103.5 1250.3086 1109.7617 1250.3086 1113.3008C 1264.7188 1107.3984 1275.4688 1104.3281 1282.4414 1104.3281C 1284.4414 1104.3281 1286.2188 1105.3906 1287.6289 1107.3984C 1289.0508 1109.3984 1289.7617 1111.7695 1289.7617 1114.6016C 1289.1719 1124.5195 1288.9297 1153.6914 1288.9297 1202.2383C 1279.8398 1207.1992 1271.3281 1209.8008 1263.4219 1209.8008C 1262.3594 1209.8008 1261.2891 1208.9688 1260.5898 1207.5586C 1259.7617 1206.0195 1259.3984 1204.25 1259.3984 1202.2383C 1259.3984 1160.3086 1259.6406 1134.3281 1260.2305 1124.5195C 1257.2812 1124.5195 1254.2109 1125.3516 1251.1406 1127.1211C 1251.1406 1149.8008 1247.1211 1169.2891 1238.8516 1185.4609C 1230.6992 1201.6484 1220.7812 1209.8008 1209.3281 1209.8008C 1202 1209.8008 1195.8594 1206.8398 1190.7812 1201.0586C 1185.5898 1195.1484 1183.1016 1188.0703 1183.1016 1179.8008C 1183.1016 1167.2812 1186.2891 1155.6992 1192.6719 1145.1914C 1199.1719 1134.6797 1207.4414 1127.3516 1217.5898 1123.1016C 1217.5898 1118.2617 1216.8906 1113.4219 1215.6992 1108.4609C 1214.3984 1103.5 1212.6289 1098.7695 1210.1484 1094.5195L1210.1484 1094.5195L1109.5195 1094.5195C 1114.3594 1097.2383 1118.3789 1101.1289 1121.3281 1106.1016C 1124.4102 1111.0508 1125.9414 1116.25 1125.9414 1121.8086C 1128.3008 1118.2617 1131.3711 1115.4219 1135.0312 1113.5391C 1138.6992 1111.6484 1142.8281 1110.6992 1147.1992 1110.6992C 1156.2891 1110.6992 1164.0898 1114.25 1170.4688 1121.3281C 1176.9609 1128.4219 1180.1484 1137.0391 1180.1484 1147.1992C 1180.1484 1155.1094 1177.9102 1163.3789 1173.5391 1171.7617C 1169.0508 1180.2695 1163.0312 1187.8281 1155.4688 1194.5586C 1141.1797 1184.5195 1134.0898 1179.9219 1134.0898 1180.75C 1134.0898 1178.7305 1136.8086 1174.25 1142.2383 1167.2812C 1144.4805 1164.4414 1146.1406 1161.1406 1147.1992 1157.2383C 1148.3789 1153.3398 1148.9688 1149.0898 1148.9688 1144.6016C 1148.9688 1140.3516 1147.9102 1136.8086 1146.0195 1133.8516C 1144.1289 1130.8984 1141.7695 1129.3711 1139.0508 1129.3711C 1135.8594 1129.3711 1132.1992 1131.6094 1128.0703 1135.9805C 1123.8086 1140.2305 1119.6797 1146.4883 1115.3086 1154.3984C 1115.3086 1151.1016 1116.1406 1146.2617 1117.6719 1139.6406C 1112 1146.8516 1102.6719 1153.1016 1089.9219 1158.4219C 1095.1094 1159.7188 1102.6719 1166.9219 1112.7109 1179.8008C 1116.4883 1184.6406 1120.1484 1188.3008 1123.8086 1190.7812C 1127.4805 1193.3789 1130.8984 1194.5586 1134.0898 1194.5586C 1129.4805 1199.5195 1125.2305 1203.1797 1121.3281 1205.7812C 1117.4414 1208.5 1114.0117 1209.8008 1111.1797 1209.8008C 1108.4609 1209.8008 1104.8008 1207.7891 1100.3086 1203.8906C 1095.6992 1200 1090.6211 1194.3281 1084.9609 1187C 1074.5586 1173.8906 1069.1289 1167.2812 1068.5391 1167.2812C 1066.6484 1167.2812 1064.8789 1167.3906 1063.4609 1167.8711C 1062.0391 1168.3398 1060.9805 1168.9297 1060.3906 1169.6406L1060.3906 1169.6406L1063.5781 1149.5586C 1071.7305 1149.5586 1078.6992 1146.8516 1084.4805 1141.4102C 1090.2695 1135.9805 1093.1094 1129.4805 1093.1094 1121.8086C 1093.1094 1115.4219 1091.2188 1109.6406 1087.5508 1104.5586C 1083.8906 1099.3594 1079.1719 1096.0586 1073.5 1094.5195L1073.5 1094.5195L890.5469 1094.5195L890.5469 1079.4102zM1423.2188 1164.6797C 1423.2188 1147.9102 1427.9492 1133.7383 1437.6289 1122.0391C 1447.1992 1110.2305 1458.7812 1104.3281 1472.3594 1104.3281C 1477.0781 1104.3281 1481.3281 1106.2109 1485.1094 1109.8711C 1488.8906 1113.5391 1491.4883 1118.3789 1493.0312 1124.5195C 1491.7305 1122.8711 1490.1914 1121.6914 1488.4219 1120.8594C 1486.5312 1119.9219 1484.5195 1119.5586 1482.2812 1119.5586C 1475.8984 1119.5586 1470.4688 1123.1016 1465.9805 1130.4297C 1461.6094 1137.75 1459.3711 1146.6094 1459.3711 1157.1211C 1459.3711 1161.25 1460.4297 1164.8008 1462.6719 1167.75C 1464.9219 1170.6992 1467.6289 1172.2383 1470.8203 1172.2383C 1477.3203 1172.2383 1483.3398 1165.3906 1488.7695 1151.6914C 1494.3281 1138.1094 1497.0391 1123.1016 1497.0391 1107.0391C 1500.3516 1104.0898 1504.6016 1101.8398 1509.5586 1100.3086C 1514.5195 1098.8906 1520.1914 1098.1797 1526.5703 1098.1797C 1525.5117 1117.9102 1524.9219 1152.6289 1524.9219 1202.2383C 1515.8203 1207.1992 1507.0781 1209.8008 1498.5781 1209.8008C 1497.75 1209.8008 1496.9219 1208.9688 1496.3281 1207.5586C 1495.7383 1206.0195 1495.3906 1204.25 1495.3906 1202.2383L1495.3906 1202.2383L1496.2109 1157.1211C 1491.0195 1170.9414 1484.1719 1181.9219 1475.7812 1190.0781C 1467.5117 1198.1016 1458.6602 1202.2383 1449.4414 1202.2383C 1442.2383 1202.2383 1435.9805 1198.5781 1430.8984 1191.25C 1425.6992 1183.9297 1423.2188 1175.0703 1423.2188 1164.6797zM1662.9883 1139.6406C 1665.7109 1139.6406 1668.6602 1138.6992 1671.7305 1137.0391C 1674.8008 1135.2695 1677.8711 1132.6719 1680.9414 1129.3711L1680.9414 1129.3711L1681.7695 1105.7383C 1684.6016 1103.2617 1688.5 1101.3711 1693.5781 1100.0703C 1698.5391 1098.7695 1704.4414 1098.1797 1711.2891 1098.1797C 1710.2305 1116.0195 1709.7617 1150.7383 1709.7617 1202.2383C 1700.6719 1207.1992 1692.1602 1209.8008 1684.3711 1209.8008C 1683.1914 1209.8008 1682.2383 1208.9688 1681.4102 1207.5586C 1680.5898 1206.0195 1680.2305 1204.25 1680.2305 1202.2383L1680.2305 1202.2383L1680.9414 1147.1992C 1678.2188 1149.5586 1675.6289 1151.4492 1673.0312 1152.6289C 1670.5508 1153.8086 1668.3008 1154.3984 1666.2891 1154.3984C 1665.3516 1154.3984 1664.5195 1153.9297 1663.9297 1152.9883C 1663.3398 1152.0391 1662.9883 1150.8594 1662.9883 1149.5586zM2597.711 1177.1992C 2602.5508 1175.8984 2606.4492 1173.4219 2609.6406 1169.6406C 2612.711 1165.7383 2614.371 1161.6094 2614.371 1157.1211C 2614.371 1155.6992 2614.0117 1154.5195 2613.3008 1153.5781C 2612.5898 1152.6289 2611.7695 1152.1602 2610.9414 1152.1602C 2606.9219 1152.1602 2603.7305 1154.3984 2601.379 1158.8906C 2598.8906 1163.3789 2597.711 1169.5195 2597.711 1177.1992zM2649.6797 1204.8398C 2649.6797 1155.6992 2650.1484 1122.2812 2651.2188 1104.3281C 2656.879 1099.3594 2667.039 1096.7617 2681.5703 1096.7617C 2680.5117 1114.7188 2680.039 1149.8008 2680.039 1202.2383C 2670.9414 1207.1992 2662.4297 1209.8008 2654.5195 1209.8008C 2653.2188 1209.8008 2652.039 1209.2109 2651.1016 1208.2617C 2650.1484 1207.3203 2649.6797 1206.1406 2649.6797 1204.8398zM314.16797 874.60156C 314.16797 857.9492 319.01172 843.76953 328.57812 831.96094C 338.14453 820.26953 349.83594 814.3594 363.3047 814.3594C 368.14453 814.3594 372.39844 816.2617 376.17578 819.91016C 379.83594 823.46094 382.5547 828.4219 383.97266 834.4414C 382.67188 832.91016 381.13672 831.73047 379.36328 830.78125C 377.59375 829.96094 375.46875 829.48047 373.22266 829.48047C 366.84375 829.48047 361.41406 833.1406 357.04297 840.46875C 352.5547 847.78906 350.3125 856.64844 350.3125 867.03906C 350.3125 871.28906 351.4922 874.83984 353.73438 877.78906C 355.85938 880.7383 358.57812 882.16016 361.76562 882.16016C 368.26172 882.16016 374.28516 875.3086 379.83594 861.73047C 385.26953 848.03125 388.10547 833.1406 388.10547 816.96094C 391.41406 814.0117 395.54688 811.76953 400.5078 810.35156C 405.58594 808.8086 411.2539 808.10156 417.6328 808.10156C 416.45312 827.9492 415.85938 862.6719 415.85938 912.16016C 406.76562 917.2383 398.02734 919.71875 389.64062 919.71875C 388.6953 919.71875 387.98828 919.0117 387.27734 917.48047C 386.6875 916.0586 386.33203 914.28125 386.33203 912.16016L386.33203 912.16016L387.27734 867.03906C 381.96484 880.98047 375.23047 891.96094 366.84375 900.1094C 358.45703 908.1406 349.71875 912.16016 340.5078 912.16016C 333.1836 912.16016 326.92578 908.5 321.84766 901.1797C 316.76953 893.96875 314.16797 885.1094 314.16797 874.60156zM700.3906 789.3281L807.27734 789.3281L807.27734 804.4414L789.3242 804.4414C 789.7969 805.3906 790.15234 806.5703 790.3867 807.9883C 790.7422 809.51953 790.8594 811.1797 790.8594 813.0586C 790.8594 815.3086 780.23047 820.8594 758.97266 829.48047C 755.3086 831.01953 752.35547 832.91016 750.1133 835.03125C 747.75 837.03906 746.6875 838.9297 746.6875 840.6992C 746.6875 843.66016 748.22266 846.3711 751.29297 848.73047C 754.4844 850.98047 758.3828 852.5117 762.9883 853.21875C 774.4453 854.7617 783.89453 858.53906 791.5703 864.5586C 799.2461 870.5781 803.14453 877.1992 803.14453 884.51953C 803.14453 894.3281 797.59375 902.58984 786.3711 909.4414C 775.15234 916.28906 761.5703 919.71875 745.7422 919.71875C 734.7578 919.71875 723.65625 916.41016 712.5547 909.6797C 701.33594 903.0586 695.78516 896.3281 695.78516 889.71875C 695.78516 885.23047 698.02734 880.8594 702.6328 876.6094C 707.2383 872.3594 713.14453 869.1719 720.34766 867.03906C 719.7578 877.1992 722.1211 885.9414 727.3164 893.3789C 732.6328 900.9414 739.0117 904.60156 746.6875 904.60156C 752.59375 904.60156 757.5547 902.8281 761.6875 899.1719C 765.9375 895.5117 767.9492 891.01953 767.9492 885.8203C 767.9492 880.8594 764.6406 875.89844 757.79297 870.9414C 751.0586 866.10156 742.3164 862.3203 731.8086 859.48047C 725.66406 857.71094 720.58594 854.9883 716.5703 851.3281C 712.4375 847.5508 710.4297 843.53906 710.4297 839.39844C 710.4297 835.6211 713.02734 832.0781 718.10547 828.8906C 723.0664 825.6992 729.91797 822.8711 738.4219 820.6289C 750.9375 817.3203 757.1992 813.66016 757.1992 809.41016C 757.1992 808.6914 757.08203 807.9883 756.84375 807.03906C 756.4922 806.21094 756.1367 805.3906 755.66406 804.4414L755.66406 804.4414L308.3828 804.4414L308.3828 789.3281zM502.08203 883.9297L502.19922 872C 501.01953 877.4414 499.2461 882.39844 496.8828 886.8789C 498.65625 885.9414 500.4297 885 502.08203 883.9297zM430.85938 873.3008C 430.85938 857.8281 435.23047 844.60156 443.85156 833.5C 452.47656 822.5117 462.98828 816.96094 475.27344 816.96094C 480.11328 816.96094 484.71875 818.96875 489.08984 822.8711C 493.57812 826.7617 496.0586 831.01953 496.64844 835.7383C 495.34766 834.21094 493.9336 833.03125 492.16016 832.0781C 490.5078 831.25 488.6172 830.78125 486.72656 830.78125C 480.35156 830.78125 474.91406 834.91016 470.4297 843.1797C 465.9375 851.4492 463.6953 861.4883 463.6953 873.3008C 463.6953 878.5 464.8789 882.9883 467.1211 886.64844C 469.3672 890.3086 472.08203 892.0781 475.27344 892.0781C 483.0664 892.0781 489.5625 884.41016 494.9922 869.0508C 500.4297 853.5781 503.14453 835.03125 503.14453 813.0586C 508.57812 808.21875 518.3828 805.7383 532.6719 805.7383C 531.6094 823.6992 531.1367 843.66016 531.1367 865.7383C 533.5 855.46875 537.27734 847.3203 542.35547 841.1797C 547.4375 834.91016 552.9883 831.85156 558.89453 831.85156C 567.16016 831.85156 574.1289 837.75 579.7969 849.4414C 585.58594 861.25 588.4219 875.4297 588.4219 892.0781C 588.4219 897.5117 584.875 902.71094 577.5547 907.6719C 570.23047 912.6289 560.78125 916.64844 549.08984 919.71875C 550.625 912.75 551.8047 905.78125 552.75 898.5781C 553.5781 891.4883 553.9336 884.41016 553.9336 877.1992C 553.9336 871.64844 553.34375 866.9219 552.16016 863.03125C 550.8633 859.1289 549.3242 857.1211 547.4375 857.1211C 542.9492 857.1211 539.0508 862.5508 535.8594 873.3008C 532.6719 884.0508 531.1367 897.03906 531.1367 912.16016C 522.04297 917.2383 513.1836 919.71875 504.79688 919.71875C 503.85156 919.71875 503.14453 919.25 502.5547 918.3008C 501.84766 917.3594 501.60938 916.1797 501.60938 914.7617L501.60938 914.7617L501.84766 901.28906C 495.8203 905.66016 488.97266 909.4414 481.29297 912.6289C 465.35156 919.1289 446.92578 922.3203 425.89844 922.3203C 424.48047 922.3203 423.1836 921.3711 422.1211 919.3594C 421.0586 917.3594 420.46875 914.9883 420.46875 912.16016C 420.46875 909.4414 420.9414 907.0781 421.8828 905.1914C 422.71094 903.1797 423.89453 902.2383 425.07422 902.2383C 430.26953 902.2383 435.35156 902.1211 440.1914 901.7617C 439.95703 901.41016 439.72266 901.1797 439.48438 900.8203C 433.8125 893.2617 430.85938 884.0508 430.85938 873.3008zM593.02734 882.16016C 593.02734 867.75 603.4219 851.5703 623.97266 833.73047C 644.6406 815.78125 663.4219 806.8086 680.0742 806.8086C 682.79297 806.8086 685.15234 807.8711 687.04297 809.8789C 689.0508 811.76953 689.9961 814.25 689.9961 816.96094C 688.8125 836.8086 688.33984 868.9297 688.33984 913.46094C 685.98047 915.58984 682.6719 917.1211 678.1836 918.1797C 673.6953 919.25 668.2617 919.71875 662.0039 919.71875C 661.0586 919.71875 660.35156 919.0117 659.7578 917.48047C 659.0508 916.0586 658.8125 914.28125 658.8125 912.16016C 658.8125 865.26953 659.0508 836.8086 659.6406 826.8789C 649.95703 832.3203 642.16016 839.6406 636.3711 848.85156C 630.46875 858.0703 627.5156 867.5117 627.5156 877.1992C 627.5156 887 628.9336 895.3906 631.7656 902.3594C 634.4844 909.4414 638.02734 913.5781 642.39453 914.7617C 639.4453 916.41016 636.2539 917.58984 632.9492 918.4219C 629.6406 919.3594 626.21484 919.71875 622.5547 919.71875C 616.0586 919.71875 609.5625 915.58984 602.9492 907.1992C 596.33203 898.9297 593.02734 890.5508 593.02734 882.16016zM665.78125 747.8711C 665.78125 742.3203 667.08203 737.58984 669.5625 733.6914C 672.16016 729.8008 675.23047 727.78906 678.89453 727.78906C 682.5547 727.78906 685.625 729.8008 688.22266 733.6914C 690.7031 737.58984 692.0039 742.3203 692.0039 747.8711C 692.0039 753.4219 690.7031 758.2617 688.22266 762.28125C 685.625 766.1797 682.5547 768.1797 678.89453 768.1797C 675.23047 768.1797 672.16016 766.1797 669.5625 762.28125C 667.08203 758.2617 665.78125 753.4219 665.78125 747.8711zM599.6406 948.66016C 599.6406 944.8789 602.2383 941.10156 607.4375 937.4414C 612.6328 933.76953 619.3672 930.8203 627.5156 928.5781C 627.5156 938.1406 630.8203 947.8281 637.4375 957.75C 644.16797 967.5508 650.66406 972.39844 657.16016 972.39844C 660.7031 972.39844 663.77344 970.5117 666.3711 966.6094C 668.85156 962.58984 670.15234 957.8711 670.15234 952.3203C 670.15234 947.8281 669.5625 943.9297 668.2617 940.7383C 667.08203 937.5508 665.5469 935.89844 663.65625 935.89844C 661.41406 935.89844 659.52344 937.6719 657.8672 941.10156C 656.33594 944.6406 655.5078 948.76953 655.5078 953.6211C 653.85156 953.2617 652.3164 952.3203 650.78125 950.78125C 649.2461 949.25 647.83203 947.2383 646.41016 944.7617C 648.3008 937.3203 651.4922 931.28906 656.21875 926.6914C 660.8242 922.0781 666.1367 919.71875 671.9258 919.71875C 679.60156 919.71875 686.21484 922.4414 691.64844 927.8711C 697.1992 933.1797 699.91406 939.8008 699.91406 947.3594C 699.91406 957.16016 695.78516 965.4297 687.39844 972.16016C 679.1289 978.8906 669.08984 982.3203 657.16016 982.3203C 643.34375 982.3203 631.29297 979.3594 621.01953 973.33984C 610.7422 967.3203 603.65625 959.1719 599.6406 948.66016zM866.8047 884.51953C 866.8047 888.66016 867.16016 892.3203 867.7539 895.26953C 868.34375 898.21875 869.16797 899.6406 869.9922 899.6406C 872.2383 899.6406 873.3008 888.78125 873.3008 867.03906L873.3008 867.03906L872.59375 853.21875C 870.8203 855.6992 869.40234 859.60156 868.34375 865.14844C 867.27734 870.5781 866.8047 877.0781 866.8047 884.51953zM1067.7109 914.7617C 1067.7109 865.7383 1068.1797 832.3203 1069.25 814.3594C 1074.9219 809.41016 1085.0703 806.8086 1099.6016 806.8086C 1098.5391 824.7617 1098.0703 859.83984 1098.0703 912.16016C 1088.9688 917.2383 1080.4688 919.71875 1072.6719 919.71875C 1071.2617 919.71875 1070.0703 919.25 1069.1289 918.3008C 1068.1797 917.3594 1067.7109 916.1797 1067.7109 914.7617zM1113.0586 873.3008C 1113.0586 857.8281 1117.4414 844.60156 1126.0586 833.5C 1134.6797 822.5117 1145.1914 816.96094 1157.4805 816.96094C 1162.1992 816.96094 1166.8086 818.96875 1171.2891 822.8711C 1175.7812 826.7617 1178.2617 831.01953 1178.8516 835.7383C 1177.5508 834.21094 1176.0195 833.03125 1174.3594 832.0781C 1172.7109 831.25 1170.8203 830.78125 1168.9297 830.78125C 1162.5508 830.78125 1157.1211 834.91016 1152.6289 843.1797C 1148.1406 851.4492 1145.8984 861.4883 1145.8984 873.3008C 1145.8984 878.5 1146.9609 882.9883 1149.3281 886.64844C 1151.5703 890.3086 1154.2891 892.0781 1157.4805 892.0781C 1165.1484 892.0781 1171.7695 884.41016 1177.1992 869.0508C 1182.6289 853.5781 1185.2305 835.03125 1185.2305 813.0586C 1190.7812 808.21875 1200.5781 805.7383 1214.7617 805.7383C 1213.8086 823.6992 1213.2188 843.66016 1213.2188 865.7383C 1215.6992 855.46875 1219.3711 847.3203 1224.5586 841.1797C 1229.6406 834.91016 1235.1914 831.85156 1241.1016 831.85156C 1249.25 831.85156 1256.2188 837.75 1262 849.4414C 1267.7891 861.25 1270.6289 875.4297 1270.6289 892.0781C 1270.6289 897.5117 1266.9609 902.71094 1259.7617 907.6719C 1252.4414 912.6289 1242.8711 916.64844 1231.1797 919.71875C 1232.8281 912.75 1234.0117 905.78125 1234.8398 898.5781C 1235.7812 891.4883 1236.1406 884.41016 1236.1406 877.1992C 1236.1406 871.64844 1235.5508 866.9219 1234.25 863.03125C 1233.0703 859.1289 1231.5312 857.1211 1229.6406 857.1211C 1225.1484 857.1211 1221.2617 862.5508 1218.0703 873.3008C 1214.8789 884.0508 1213.2188 897.03906 1213.2188 912.16016C 1204.1289 917.2383 1195.3906 919.71875 1187 919.71875C 1186.0586 919.71875 1185.3516 919.25 1184.6406 918.3008C 1184.0508 917.3594 1183.6914 916.1797 1183.6914 914.7617L1183.6914 914.7617L1184.3984 872C 1181.5703 884.0508 1176.3711 893.73047 1168.6992 901.0586C 1161.0195 908.5 1152.2812 912.16016 1142.5898 912.16016C 1134.4414 912.16016 1127.4805 908.3789 1121.6914 900.8203C 1115.8984 893.2617 1113.0586 884.0508 1113.0586 873.3008zM1281.7305 914.7617C 1281.7305 865.7383 1282.1992 832.3203 1283.2617 814.3594C 1288.9297 809.41016 1299.0898 806.8086 1313.6211 806.8086C 1312.5508 824.7617 1312.0781 859.83984 1312.0781 912.16016C 1302.9883 917.2383 1294.4805 919.71875 1286.6914 919.71875C 1285.2695 919.71875 1284.0898 919.25 1283.1484 918.3008C 1282.1992 917.3594 1281.7305 916.1797 1281.7305 914.7617zM1321.2891 789.3281L1445.8984 789.3281L1445.8984 804.4414L1379.8789 804.4414C 1384.1289 806.21094 1387.6719 809.1719 1390.3906 813.3008C 1393.2188 817.5508 1394.5195 822.03906 1394.5195 826.8789C 1394.5195 837.39844 1391.1016 846.25 1384.25 853.46094C 1377.2812 860.78125 1369.0117 864.4414 1359.3281 864.4414C 1359.3281 872.1211 1361.2188 878.6211 1364.8789 884.0508C 1368.4219 889.3594 1372.9102 892.0781 1378.1094 892.0781C 1383.4219 892.0781 1388.5 888.4219 1393.4609 880.98047C 1398.5391 873.66016 1402.4414 863.96875 1405.2695 851.9219L1405.2695 851.9219L1406.1016 815.66016C 1408.9297 813.3008 1412.9492 811.41016 1417.9102 810.1094C 1422.8711 808.8086 1428.8906 808.10156 1435.6289 808.10156C 1434.5586 827.9492 1433.9688 862.6719 1433.9688 912.16016C 1424.8789 917.2383 1416.1406 919.71875 1407.6289 919.71875C 1406.8086 919.71875 1405.9805 919.0117 1405.3906 917.48047C 1404.8008 916.0586 1404.4414 914.28125 1404.4414 912.16016L1404.4414 912.16016L1404.4414 882.16016C 1400.8984 891.3711 1396.1797 898.6992 1390.3906 904.1289C 1384.4805 909.4414 1378.2188 912.16016 1371.6094 912.16016C 1358.9688 912.16016 1348.1016 907.3203 1339.0117 897.6289C 1330.0312 887.8281 1325.5508 876.01953 1325.5508 862.0781C 1325.5508 860.0703 1326.25 858.3008 1327.5508 856.76953C 1328.8516 855.23047 1330.3906 854.51953 1332.2812 854.51953C 1340.4297 854.51953 1347.3984 851.8086 1353.1914 846.4883C 1358.8516 841.0586 1361.8086 834.5586 1361.8086 826.8789C 1361.8086 821.3281 1360.6289 816.3711 1358.5 812.1211C 1356.3711 807.8711 1353.6602 805.3906 1350.3516 804.4414L1350.3516 804.4414L1042.4414 804.4414C 1043.0312 805.5117 1043.3789 806.6914 1043.7305 807.9883C 1043.9688 809.28125 1044.0898 810.6992 1044.0898 812C 1044.0898 815.3086 1034.7617 819.5586 1016.10156 824.51953C 1003.1094 828.0586 996.4922 830.4297 996.4922 831.85156C 996.4922 834.8008 998.6172 837.6289 1002.75 840.23047C 1006.8789 842.8281 1012.4414 845.0703 1019.39844 846.96094C 1029.9219 849.8008 1038.5391 853.8086 1045.3906 859.0117C 1052.1211 864.21094 1055.5508 869.39844 1055.5508 874.60156C 1055.5508 879.4414 1052.8281 884.8789 1047.3984 890.78125C 1041.9609 896.6914 1037 899.6406 1032.5117 899.6406C 1028.0312 899.6406 1024.1289 899.28125 1021.0586 898.33984C 1017.9883 897.5117 1015.8594 896.3281 1014.5586 894.6797C 1016.4492 894.21094 1017.9883 892.78906 1019.1719 890.4297C 1020.46875 888.0586 1021.0586 885.35156 1021.0586 882.16016C 1021.0586 877.3203 1019.9883 872.9492 1017.8711 869.1719C 1015.7383 865.26953 1012.91016 863.03125 1009.71875 862.0781L1009.71875 862.0781L993.3008 858.1797C 990.8203 859.60156 988.6953 862.5508 987.16016 866.9219C 985.625 871.41016 984.91406 876.4883 984.91406 882.16016C 984.91406 891.6094 987.5156 900.1094 992.8281 907.6719C 998.14453 915.23047 1004.8789 920.0703 1012.91016 922.3203L1012.91016 922.3203L998.02734 932.2383C 986.8086 932.2383 977.1211 928.10156 969.08984 919.83984C 961.0586 911.5703 957.04297 901.53125 957.04297 889.71875C 957.04297 882.75 959.16797 875.5508 963.1836 867.8711C 967.3164 860.1914 972.9883 853.21875 980.0742 846.96094C 966.96484 839.6406 960.35156 834.6797 960.35156 831.85156C 960.35156 826.64844 969.08984 821.6914 986.5703 816.96094C 1001.9219 812.8281 1009.71875 808.6914 1009.71875 804.4414L1009.71875 804.4414L901.29297 804.4414C 903.4219 813.53906 904.4844 819.8008 904.4844 823.21875C 919.0117 817.3203 929.6406 814.3594 936.6094 814.3594C 938.6172 814.3594 940.3867 815.4297 941.8047 817.4414C 943.22266 819.3281 943.9336 821.8086 943.9336 824.51953C 943.34375 834.4414 943.10547 863.6211 943.10547 912.16016C 934.0117 917.2383 925.5078 919.71875 917.71094 919.71875C 916.53125 919.71875 915.58594 919.0117 914.7578 917.48047C 913.9336 916.0586 913.5781 914.28125 913.5781 912.16016C 913.5781 870.23047 913.8125 844.3594 914.40234 834.4414C 911.4492 834.4414 908.5 835.3906 905.4258 837.03906C 905.4258 859.83984 901.29297 879.3203 893.14453 895.5117C 884.875 911.6914 875.0742 919.71875 863.5 919.71875C 856.29297 919.71875 850.03516 916.8789 844.95703 910.98047C 839.8789 905.1914 837.27734 898.1094 837.27734 889.71875C 837.27734 877.1992 840.46875 865.7383 846.96484 855.23047C 853.34375 844.71875 861.6094 837.39844 871.7656 833.1406C 871.7656 828.3008 871.1758 823.33984 869.875 818.3789C 868.5781 813.4219 866.8047 808.8086 864.4453 804.4414L864.4453 804.4414L831.84375 804.4414L831.84375 789.3281zM1497.6289 804.4414L1497.6289 789.3281L1718.9688 789.3281C 1716.4883 787.0781 1714.4805 784.1289 1713.0586 780.58984C 1711.5312 777.03906 1710.8203 773.2617 1710.8203 769.25C 1710.8203 760.03125 1714.4805 751.53125 1721.9219 743.6211C 1729.25 735.6992 1737.3984 731.6914 1746.1406 731.6914C 1750.7383 731.6914 1755 732.28125 1758.5391 733.21875C 1762.1992 734.28125 1765.1484 735.9414 1767.5195 737.9492C 1767.5195 740.1914 1766.1016 743.5 1763.5 747.75C 1760.8984 752 1758.8906 754.1289 1757.5898 754.1289C 1755.1094 751.0586 1752.8711 748.5781 1750.8594 746.8086C 1748.9688 745.14844 1747.4414 744.21094 1746.1406 744.21094C 1742.9492 744.21094 1740.2305 745.6289 1737.9883 748.21875C 1735.7383 750.9414 1734.6797 754.25 1734.6797 758.03125C 1734.6797 761.5703 1735.6289 765.1094 1737.2812 768.76953C 1739.0508 772.4414 1741.4102 775.5117 1744.3594 778.10156L1744.3594 778.10156L1725.5781 789.3281L1941.25 789.3281C 1936.6484 789.3281 1932.6289 788.5 1929.2109 786.73047C 1925.7812 784.96094 1923.3008 782.58984 1921.5312 779.39844L1921.5312 779.39844L1906.0586 756.73047C 1904.2891 753.66016 1902.1602 751.1797 1899.3203 749.39844C 1896.6094 747.75 1893.6602 746.8086 1890.3516 746.8086C 1885.9805 746.8086 1883.8516 746.4492 1883.8516 745.5117C 1883.8516 744.8008 1884.0898 744.21094 1884.6797 743.5C 1885.2695 742.78906 1886.1016 742.1992 1887.0391 741.6094L1887.0391 741.6094L1906.8789 734.0508C 1909.7188 732.5117 1913.0312 731.6914 1916.5703 731.6914C 1917.9883 731.6914 1919.5195 732.6289 1921.3008 734.28125C 1923.0703 736.0586 1924.8398 738.53906 1926.4883 741.6094L1926.4883 741.6094L1942.9102 766.64844C 1944.8008 770.3086 1947.3906 773.2617 1950.4688 775.3906C 1953.6602 777.5117 1957.0781 778.9297 1960.9805 779.39844C 1957.3203 782.71094 1953.8906 785.1914 1950.4688 786.83984C 1947.1602 788.5 1944.0898 789.3281 1941.25 789.3281L1941.25 789.3281L1979.2891 789.3281C 1977.6289 787.3203 1976.4492 785.1914 1975.6289 782.9492C 1974.6797 780.8203 1974.3203 778.6992 1974.3203 776.8086C 1974.3203 766.8789 1980.6992 756.96094 1993.5781 746.8086C 2006.4492 736.76953 2019.2109 731.6914 2031.8398 731.6914C 2044.0117 731.6914 2055.3516 735.58984 2065.7383 743.2617C 2076.2617 751.0586 2084.6406 761.8086 2090.8984 775.5117C 2089.0117 779.0508 2085.5898 781.76953 2080.8594 783.76953C 2076.0195 785.78125 2070.3516 786.73047 2063.7383 786.73047C 2060.6602 774.08984 2056.0586 763.8086 2049.9219 756.01953C 2043.7695 748.1094 2037.1602 744.21094 2030.0703 744.21094C 2024.6406 744.21094 2019.2109 748.46094 2013.7812 756.73047C 2008.2188 765.1094 2005.5117 773.5 2005.5117 781.76953C 2005.5117 783.3008 2005.8594 784.83984 2006.6914 786.25C 2007.3984 787.5508 2008.3398 788.6211 2009.6406 789.3281L2009.6406 789.3281L2128.461 789.3281L2128.461 804.4414L2102.4688 804.4414C 2103.3008 805.5117 2103.8906 806.9297 2104.25 808.6914C 2104.7188 810.35156 2104.8398 812.3594 2104.8398 814.3594C 2104.8398 819.4414 2101.8906 824.7617 2095.9805 830.4297C 2090.0703 836.10156 2082.3984 840.8203 2072.9492 844.60156C 2067.3984 846.85156 2062.789 851.3281 2059.25 857.8281C 2055.8203 864.3281 2054.0508 871.53125 2054.0508 879.5586C 2054.0508 886.53125 2055.4688 892.4297 2058.3008 897.28125C 2061.25 902.2383 2064.8008 904.60156 2068.8086 904.60156C 2076.0195 904.60156 2082.3984 900.58984 2087.9492 892.6719C 2093.621 884.6406 2097.039 874.48047 2098.3398 862.0781C 2105.6602 862.0781 2111.9297 864.21094 2117 868.33984C 2122.0781 872.58984 2124.6797 877.5586 2124.6797 883.46094C 2124.6797 891.4883 2118.1797 899.51953 2105.0703 907.6719C 2092.0781 915.6992 2079.211 919.71875 2066.3281 919.71875C 2053.461 919.71875 2042.4805 915.8203 2033.2617 908.03125C 2024.0508 900.23047 2019.5586 890.66016 2019.5586 879.5586C 2019.5586 870.6992 2022.75 862.4414 2029.25 854.7617C 2035.7383 847.1992 2044.0117 842 2054.0508 839.39844C 2058.7812 838.21875 2062.6719 835.03125 2065.7383 829.71875C 2068.8086 824.51953 2070.3516 818.6211 2070.3516 812C 2070.3516 810.6992 2070.2305 809.28125 2069.7617 807.9883C 2069.3984 806.6914 2068.8086 805.5117 2067.9883 804.4414L2067.9883 804.4414L1684.4805 804.4414C 1688.8516 806.21094 1692.3984 809.1719 1695.1094 813.3008C 1697.8281 817.5508 1699.25 822.03906 1699.25 826.8789C 1699.25 837.39844 1695.6992 846.25 1688.8516 853.46094C 1682 860.78125 1673.7305 864.4414 1664.0508 864.4414C 1664.0508 872.1211 1665.8203 878.6211 1669.4805 884.0508C 1673.1406 889.3594 1677.5117 892.0781 1682.8281 892.0781C 1688.0312 892.0781 1693.1094 888.4219 1698.1797 880.98047C 1703.1406 873.66016 1707.1602 863.96875 1710 851.9219L1710 851.9219L1710.8203 815.66016C 1713.6484 813.3008 1717.5508 811.41016 1722.6289 810.1094C 1727.6016 808.8086 1733.5 808.10156 1740.3516 808.10156C 1739.1719 827.9492 1738.5781 862.6719 1738.5781 912.16016C 1729.4805 917.2383 1720.7383 919.71875 1712.3594 919.71875C 1711.4102 919.71875 1710.7109 919.0117 1710 917.48047C 1709.4102 916.0586 1709.0508 914.28125 1709.0508 912.16016L1709.0508 912.16016L1709.0508 882.16016C 1705.6289 891.3711 1700.8984 898.6992 1694.9883 904.1289C 1689.2109 909.4414 1682.9492 912.16016 1676.3281 912.16016C 1663.5781 912.16016 1652.7109 907.3203 1643.7383 897.6289C 1634.7617 887.8281 1630.2695 876.01953 1630.2695 862.0781C 1630.2695 860.0703 1630.8594 858.3008 1632.1602 856.76953C 1633.4609 855.23047 1635.1211 854.51953 1636.8789 854.51953C 1645.0391 854.51953 1652 851.8086 1657.7891 846.4883C 1663.5781 841.0586 1666.4102 834.5586 1666.4102 826.8789C 1666.4102 821.3281 1665.3516 816.3711 1663.2188 812.1211C 1660.9805 807.8711 1658.2617 805.3906 1654.9609 804.4414L1654.9609 804.4414L1553.7305 804.4414C 1558.6992 807.28125 1562.5898 811.64844 1565.6719 817.5508C 1568.6211 823.46094 1570.1484 829.96094 1570.1484 837.03906C 1570.1484 845.1914 1566.0195 853.10156 1557.6289 860.66016C 1549.25 868.21875 1538.7383 873.76953 1525.9805 877.1992C 1529.7617 878.2617 1533.4219 879.91016 1537.0781 882.16016C 1540.7383 884.41016 1544.1719 887.3594 1547.2383 890.78125C 1550.0703 893.73047 1552.5508 895.98047 1554.6797 897.39844C 1556.9219 898.9297 1558.8086 899.6406 1560.4688 899.6406C 1562.1211 899.6406 1563.7812 899.39844 1565.4297 899.0508C 1566.9609 898.5781 1568.6211 897.8711 1570.1484 897.03906L1570.1484 897.03906L1571.9219 899.6406C 1569.4492 905.89844 1566.7305 910.8594 1563.5391 914.39844C 1560.3516 917.9492 1557.0391 919.71875 1553.7305 919.71875C 1548.8906 919.71875 1544.0508 918.3008 1539.3281 915.58984C 1534.4805 912.75 1530.1094 908.85156 1525.9805 903.53906C 1521.1406 897.5117 1516.8906 892.78906 1513.2188 889.48047C 1509.5586 886.1797 1506.7305 884.51953 1504.6016 884.51953C 1504.25 884.51953 1503.1914 885.46875 1501.1797 887.1211L1501.1797 887.1211L1504.6016 862.0781L1516.0586 862.0781C 1521.9609 862.0781 1527.0391 859.1289 1531.1797 853.21875C 1535.3086 847.3203 1537.4297 840.23047 1537.4297 831.85156C 1537.4297 826.64844 1535.7812 821.5703 1532.4805 816.4883C 1529.1719 811.41016 1524.8008 807.39844 1519.25 804.4414zM1568.6211 849.5586C 1571.3281 849.5586 1574.2891 848.73047 1577.3594 846.96094C 1580.4297 845.1914 1583.5 842.71094 1586.5703 839.39844L1586.5703 839.39844L1587.3984 815.66016C 1590.2305 813.3008 1594.1289 811.41016 1599.2109 810.1094C 1604.1719 808.8086 1610.0703 808.10156 1616.9297 808.10156C 1615.8594 826.0586 1615.3906 860.66016 1615.3906 912.16016C 1606.2891 917.2383 1597.7891 919.71875 1590 919.71875C 1588.8086 919.71875 1587.8711 919.0117 1587.0391 917.48047C 1586.2109 916.0586 1585.8594 914.28125 1585.8594 912.16016L1585.8594 912.16016L1586.5703 857.1211C 1583.8516 859.60156 1581.2617 861.3711 1578.6602 862.6719C 1576.1797 863.85156 1573.9297 864.4414 1571.9219 864.4414C 1570.9805 864.4414 1570.1484 863.96875 1569.5586 863.03125C 1568.9688 862.0781 1568.6211 860.89844 1568.6211 859.48047zM1530 948.66016C 1530 944.8789 1532.5898 941.10156 1537.7891 937.4414C 1542.9883 933.76953 1549.7188 930.8203 1557.8711 928.5781C 1557.8711 938.1406 1561.1797 947.8281 1567.9102 957.75C 1574.5195 967.5508 1581.1289 972.39844 1587.5195 972.39844C 1591.0586 972.39844 1594.1289 970.5117 1596.7305 966.6094C 1599.2109 962.58984 1600.5117 957.8711 1600.5117 952.3203C 1600.5117 947.8281 1599.9219 943.9297 1598.6211 940.7383C 1597.4414 937.5508 1595.8984 935.89844 1594.0117 935.89844C 1591.7695 935.89844 1589.8789 937.6719 1588.2188 941.10156C 1586.6914 944.6406 1585.8594 948.76953 1585.8594 953.6211C 1584.3281 953.2617 1582.6719 952.3203 1581.1289 950.78125C 1579.6016 949.25 1578.1914 947.2383 1576.7695 944.7617C 1578.6602 937.3203 1581.8398 931.28906 1586.5703 926.6914C 1591.1797 922.0781 1596.4883 919.71875 1602.2812 919.71875C 1609.9609 919.71875 1616.5703 922.4414 1622 927.8711C 1627.5508 933.1797 1630.2695 939.8008 1630.2695 947.3594C 1630.2695 957.16016 1626.1406 965.4297 1617.75 972.16016C 1609.4805 978.8906 1599.4492 982.3203 1587.5195 982.3203C 1573.6992 982.3203 1561.6484 979.3594 1551.3789 973.33984C 1541.1016 967.3203 1534.0117 959.1719 1530 948.66016zM1755.1094 873.3008C 1755.1094 857.8281 1759.4805 844.60156 1768.1094 833.5C 1776.7305 822.5117 1787.2383 816.96094 1799.5195 816.96094C 1804.3711 816.96094 1808.9688 818.96875 1813.3398 822.8711C 1817.8281 826.7617 1820.3086 831.01953 1820.8984 835.7383C 1819.6016 834.21094 1818.1797 833.03125 1816.4102 832.0781C 1814.7617 831.25 1812.8711 830.78125 1810.9805 830.78125C 1804.6016 830.78125 1799.1719 834.91016 1794.6797 843.1797C 1790.1914 851.4492 1787.9492 861.4883 1787.9492 873.3008C 1787.9492 878.5 1789.1289 882.9883 1791.3711 886.64844C 1793.6211 890.3086 1796.3281 892.0781 1799.5195 892.0781C 1807.3203 892.0781 1813.8086 884.41016 1819.25 869.0508C 1824.6797 853.5781 1827.3984 835.03125 1827.3984 813.0586C 1832.8281 808.21875 1842.6289 805.7383 1856.9219 805.7383C 1855.8594 823.6992 1855.3906 843.66016 1855.3906 865.7383C 1857.75 855.46875 1861.5312 847.3203 1866.6094 841.1797C 1871.6914 834.91016 1877.2383 831.85156 1883.1406 831.85156C 1891.4102 831.85156 1898.3789 837.75 1904.0508 849.4414C 1909.8398 861.25 1912.6719 875.4297 1912.6719 892.0781C 1912.6719 897.5117 1909.1289 902.71094 1901.8086 907.6719C 1894.4805 912.6289 1885.0312 916.64844 1873.2188 919.71875C 1874.8789 912.75 1876.0586 905.78125 1877 898.5781C 1877.8281 891.4883 1878.1914 884.41016 1878.1914 877.1992C 1878.1914 871.64844 1877.6016 866.9219 1876.4102 863.03125C 1875.1094 859.1289 1873.5781 857.1211 1871.6914 857.1211C 1867.1992 857.1211 1863.3008 862.5508 1860.1211 873.3008C 1856.9219 884.0508 1855.3906 897.03906 1855.3906 912.16016C 1846.3008 917.2383 1837.4297 919.71875 1829.0508 919.71875C 1828.1016 919.71875 1827.3984 919.25 1826.8086 918.3008C 1826.1016 917.3594 1825.8594 916.1797 1825.8594 914.7617L1825.8594 914.7617L1826.5703 872C 1823.6211 884.0508 1818.4219 893.73047 1810.7383 901.0586C 1803.0703 908.5 1794.3281 912.16016 1784.6406 912.16016C 1776.4883 912.16016 1769.5195 908.3789 1763.7383 900.8203C 1758.0586 893.2617 1755.1094 884.0508 1755.1094 873.3008zM1923.7695 914.7617C 1923.7695 865.7383 1924.3594 832.3203 1925.3086 814.3594C 1930.9805 809.41016 1941.1406 806.8086 1955.6602 806.8086C 1954.7188 824.7617 1954.1289 859.83984 1954.1289 912.16016C 1945.0391 917.2383 1936.6484 919.71875 1928.7305 919.71875C 1927.4414 919.71875 1926.2617 919.25 1925.1914 918.3008C 1924.25 917.3594 1923.7695 916.1797 1923.7695 914.7617zM1975.9805 909.8008C 1975.9805 863.2617 1976.5703 831.01953 1977.5117 813.0586C 1983.0586 808.21875 1992.8711 805.7383 2007.0391 805.7383C 2006.1016 823.6992 2005.5117 859.1289 2005.5117 912.16016C 1996.4102 917.2383 1988.7383 919.71875 1982.4688 919.71875C 1980.6992 919.71875 1979.1719 918.76953 1977.8711 916.8789C 1976.6914 914.9883 1975.9805 912.6289 1975.9805 909.8008zM2583.6602 804.4414L2583.7812 789.3281L2635.9805 789.3281L2635.9805 804.4414zM2468.0312 886.53125L2468.2617 874.60156C 2466.0195 880.5117 2463.539 885.6992 2460.5898 890.1914C 2463.1797 889.0117 2465.6602 887.8281 2468.0312 886.53125zM2147.8281 804.4414L2147.8281 789.3281L2508.8906 789.3281L2508.8906 804.4414L2445.2305 804.4414C 2440.9805 812.1211 2437.789 820.8594 2435.4297 830.78125C 2433.1914 840.6992 2432.121 851.21875 2432.121 862.0781C 2432.121 867.9883 2433.1914 873.0703 2435.4297 877.1992C 2437.789 881.4492 2440.5117 883.46094 2443.6992 883.46094C 2448.6602 883.46094 2453.379 880.3906 2457.9883 874.25C 2462.3594 868.10156 2465.8984 859.83984 2468.2617 849.5586L2468.2617 849.5586L2469.0898 816.96094C 2472.3906 814.0117 2476.5312 811.76953 2481.6094 810.35156C 2486.5703 808.8086 2492.2383 808.10156 2498.621 808.10156C 2497.5508 827.9492 2496.961 863.03125 2496.961 913.46094C 2494.6016 915.58984 2491.1797 917.1211 2486.5703 918.1797C 2481.961 919.25 2476.4102 919.71875 2469.9219 919.71875C 2469.3281 919.71875 2468.7383 919.25 2468.1484 918.3008C 2467.6719 917.3594 2467.4297 916.1797 2467.4297 914.7617L2467.4297 914.7617L2467.5508 904.48047C 2462.8281 907.5508 2457.5117 910.26953 2451.7305 912.6289C 2435.7812 919.1289 2417.3594 922.3203 2396.3281 922.3203C 2394.9219 922.3203 2393.621 921.3711 2392.5508 919.3594C 2391.4883 917.3594 2390.8984 914.9883 2390.8984 912.16016C 2390.8984 909.4414 2391.371 907.0781 2392.3203 905.1914C 2393.1484 903.1797 2394.3281 902.2383 2395.5117 902.2383C 2403.539 902.2383 2411.211 901.8789 2418.6602 901.0586C 2415.9414 898.8086 2413.3398 895.98047 2411.1016 892.6719C 2404.371 882.8711 2401.0586 871.0586 2401.0586 857.1211C 2401.0586 849.8008 2402 841.76953 2403.8906 832.78906C 2405.7812 823.8086 2408.7383 814.3594 2412.3984 804.4414L2412.3984 804.4414L2344.129 804.4414C 2346.371 813.53906 2347.4414 819.8008 2347.4414 823.21875C 2361.8398 817.3203 2372.5898 814.3594 2379.5586 814.3594C 2381.5703 814.3594 2383.2188 815.4297 2384.7617 817.4414C 2386.1797 819.3281 2386.879 821.8086 2386.879 824.51953C 2386.289 834.4414 2385.9414 863.6211 2385.9414 912.16016C 2376.8516 917.2383 2368.461 919.71875 2360.5508 919.71875C 2359.371 919.71875 2358.4219 919.0117 2357.711 917.48047C 2356.879 916.0586 2356.4102 914.28125 2356.4102 912.16016C 2356.4102 870.23047 2356.7695 844.3594 2357.3594 834.4414C 2354.4102 834.4414 2351.3281 835.3906 2348.2617 837.03906C 2348.2617 859.83984 2344.129 879.3203 2335.9805 895.5117C 2327.8281 911.6914 2317.9102 919.71875 2306.4492 919.71875C 2299.129 919.71875 2292.9883 916.8789 2287.789 910.98047C 2282.711 905.1914 2280.1094 898.1094 2280.1094 889.71875C 2280.1094 877.1992 2283.4219 865.7383 2289.8008 855.23047C 2296.1719 844.71875 2304.5586 837.39844 2314.6016 833.1406C 2314.6016 828.3008 2314.0117 823.33984 2312.711 818.3789C 2311.5312 813.4219 2309.6406 808.8086 2307.2812 804.4414L2307.2812 804.4414L2204.0508 804.4414C 2208.8906 807.28125 2212.9102 811.64844 2215.8594 817.5508C 2218.9297 823.46094 2220.4688 829.96094 2220.4688 837.03906C 2220.4688 845.1914 2216.211 853.10156 2207.8281 860.66016C 2199.5586 868.21875 2188.9297 873.76953 2176.1719 877.1992C 2179.961 878.2617 2183.621 879.91016 2187.2812 882.16016C 2190.9414 884.41016 2194.3594 887.3594 2197.5508 890.78125C 2200.2695 893.73047 2202.75 895.98047 2205 897.39844C 2207.2383 898.9297 2209.129 899.6406 2210.6602 899.6406C 2212.4297 899.6406 2214.0898 899.39844 2215.621 899.0508C 2217.2812 898.5781 2218.8086 897.8711 2220.4688 897.03906L2220.4688 897.03906L2222.121 899.6406C 2219.7617 905.89844 2216.9297 910.8594 2213.7383 914.39844C 2210.5508 917.9492 2207.3594 919.71875 2204.0508 919.71875C 2199.0898 919.71875 2194.3594 918.3008 2189.5195 915.58984C 2184.8008 912.75 2180.3086 908.85156 2176.1719 903.53906C 2171.4492 897.5117 2167.1992 892.78906 2163.539 889.48047C 2159.7617 886.1797 2156.9219 884.51953 2154.9102 884.51953C 2154.5586 884.51953 2153.379 885.46875 2151.4883 887.1211L2151.4883 887.1211L2154.9102 862.0781L2166.25 862.0781C 2172.2812 862.0781 2177.2383 859.1289 2181.371 853.21875C 2185.5117 847.3203 2187.629 840.23047 2187.629 831.85156C 2187.629 826.64844 2185.9805 821.5703 2182.6719 816.4883C 2179.371 811.41016 2175 807.39844 2169.5586 804.4414zM2218.9297 849.5586C 2221.6484 849.5586 2224.4805 848.73047 2227.5508 846.96094C 2230.629 845.1914 2233.6914 842.71094 2236.7695 839.39844L2236.7695 839.39844L2237.711 815.66016C 2240.5508 813.3008 2244.4492 811.41016 2249.3984 810.1094C 2254.4805 808.8086 2260.3906 808.10156 2267.2383 808.10156C 2266.1797 826.0586 2265.711 860.66016 2265.711 912.16016C 2256.6094 917.2383 2248.1016 919.71875 2240.1914 919.71875C 2239.129 919.71875 2238.0586 919.0117 2237.3594 917.48047C 2236.5312 916.0586 2236.1797 914.28125 2236.1797 912.16016L2236.1797 912.16016L2236.7695 857.1211C 2234.0508 859.60156 2231.4492 861.3711 2228.9688 862.6719C 2226.4883 863.85156 2224.129 864.4414 2222.121 864.4414C 2221.1719 864.4414 2220.4688 863.96875 2219.879 863.03125C 2219.1719 862.0781 2218.9297 860.89844 2218.9297 859.48047L2218.9297 859.48047L2218.9297 849.5586" stroke="none" fill="#ED1F24" fill-rule="nonzero" />
	</g>
</g>
</svg>